<?xml version="1.0" encoding="UTF-8"?>
<!DOCTYPE svg PUBLIC "-//W3C//DTD SVG 1.1//EN" "http://www.w3.org/Graphics/SVG/1.1/DTD/svg11.dtd">
<!-- Creator: CorelDRAW X7 -->
<svg xmlns="http://www.w3.org/2000/svg" xml:space="preserve" width="1920px" height="1080px" version="1.1" style="shape-rendering:geometricPrecision; text-rendering:geometricPrecision; image-rendering:optimizeQuality; fill-rule:evenodd; clip-rule:evenodd"
viewBox="0 0 669 376"
 xmlns:xlink="http://www.w3.org/1999/xlink">
 <defs>
  <style type="text/css">
   <![CDATA[
    .fil1 {fill:black}
    .fil7 {fill:#455060}
    .fil5 {fill:#82CB7A}
    .fil9 {fill:#83CC79}
    .fil10 {fill:#85CD7A}
    .fil8 {fill:#AADD7A}
    .fil4 {fill:#ADDF7B}
    .fil0 {fill:#E5FFCB}
    .fil3 {fill:#F4E2A2}
    .fil2 {fill:#FBF1CE}
    .fil6 {fill:#FEFFFD}
   ]]>
  </style>
 </defs>
 <g id="Capa_x0020_1">
  <metadata id="CorelCorpID_0Corel-Layer"/>
  <g id="_1592143830928">
   <rect class="fil0" width="669" height="376"/>
   <g>
    <g>
     <path class="fil1" d="M296 331c17,1 32,4 38,-10 0,-1 0,-2 0,-3l0 -13 0 -80 0 -5c0,-4 0,-6 -2,-9 -5,-7 -9,-7 -16,-7l-3 0c-2,0 -3,1 -3,3 1,8 14,-1 17,10 1,3 1,75 1,81 0,8 1,20 -3,24 -4,4 -18,3 -25,3 -18,0 -36,0 -54,0l-110 0c-5,0 -13,1 -15,-6 -2,-3 -1,-77 -1,-86 0,-7 -1,-16 3,-20 4,-3 12,-2 19,-2 29,0 58,0 86,0 3,0 69,0 71,-1 1,-1 1,-1 2,-3 -1,-2 -1,-3 -4,-3l-156 0 -13 0c-2,0 -4,1 -6,2 -5,3 -8,7 -8,12l0 19 0 79c0,1 0,2 0,3 1,5 5,9 9,11 3,1 11,1 17,1 52,0 104,0 156,0z"/>
     <path class="fil2" d="M150 252c0,-4 0,-6 5,-5 2,2 2,1 2,5 2,0 4,0 5,1 1,1 2,3 0,4 -1,2 -9,1 -11,2 -3,7 7,1 11,9 2,3 1,8 -2,11 -1,1 -3,1 -3,2 0,3 -1,6 -4,6 -3,-1 -3,-3 -3,-6 -3,0 -5,0 -6,-2 -2,-6 9,-3 12,-5 2,-1 1,-4 -2,-4 -14,-1 -12,-15 -4,-18zm101 48c-3,1 -6,3 -10,4 -27,7 -62,-4 -67,-31 -6,-29 32,-51 68,-41 0,-3 -2,-5 -3,-7l-91 0c-2,6 -8,12 -14,13l0 59c5,2 9,5 12,9 1,3 1,5 2,5l101 0c1,-4 2,-7 2,-11z"/>
     <path class="fil3" d="M298 281c0,3 -1,6 -4,6 -3,0 -3,-3 -3,-6 -3,0 -5,0 -6,-2 -1,-2 0,-4 2,-4 4,-1 13,1 10,-5 -3,-1 -10,0 -12,-7 -2,-6 2,-9 6,-11 0,-4 0,-3 2,-5 4,-1 5,1 5,5 3,0 5,-1 6,2 2,7 -10,3 -12,5 -2,2 -1,4 3,4 5,1 9,3 9,8 1,8 -6,9 -6,10zm-59 -56c1,2 3,4 3,7 28,8 42,34 26,55 -7,9 -14,11 -17,13 0,4 -1,7 -2,11l50 0c3,-1 2,-11 15,-14l0 -59c-6,-1 -12,-7 -14,-13l-61 0z"/>
     <path class="fil1" d="M249 311l-101 0c-1,0 -1,-2 -2,-5 -3,-4 -7,-7 -12,-9l0 -59c6,-1 12,-7 14,-13l91 0 61 0c2,6 8,12 14,13l0 59c-13,3 -12,13 -15,14l-50 0zm-15 -93l-84 0c-13,0 -5,8 -15,13 -4,2 -7,2 -8,6l0 57c0,15 7,5 13,15 3,5 0,6 6,8 14,1 30,0 45,0 11,0 109,1 112,0 5,-2 3,-9 10,-13 7,-3 8,0 8,-15l0 -45c0,-14 -2,-9 -9,-13 -2,-2 -4,-3 -5,-7 -1,-3 -2,-5 -5,-6 -3,0 -61,0 -68,0z"/>
     <path class="fil4" d="M225 280c-7,1 -12,-6 -13,-12 -1,-7 4,-14 10,-15 16,-2 19,24 3,27zm-32 -11c-14,-2 -12,-17 -1,-18 6,-1 11,2 13,6 2,5 -3,10 -7,11 2,2 2,9 -1,10 -5,1 -5,-6 -4,-9zm59 23c1,-3 1,-10 1,-14 -6,0 -5,-7 -3,-11 -3,1 -7,-4 -7,-7 0,-4 3,-7 7,-8 -1,-3 -3,-10 -4,-12 -4,-3 -17,-4 -22,-4 -9,0 -16,2 -23,4 -30,13 -29,48 7,58 8,2 16,2 25,1 4,-1 17,-4 19,-7z"/>
     <path class="fil4" d="M132 225c-3,1 -6,-4 -2,-6 4,-1 7,4 2,6zm1 91c-4,2 -6,-4 -3,-5 2,-1 4,0 4,1 2,3 -1,4 -1,4zm13 1c-6,-2 -3,-3 -6,-8 -6,-10 -13,0 -13,-15l0 -57c1,-4 4,-4 8,-6 10,-5 2,-13 15,-13l84 0c-1,-2 -4,-5 -6,-7 -28,0 -57,0 -86,0 -7,0 -15,-1 -19,2 -4,4 -3,13 -3,20 0,9 -1,83 1,86 2,7 10,6 15,6l110 0 2 -7c-1,0 -99,0 -101,0l-1 0c0,0 0,-1 0,-1z"/>
     <path class="fil5" d="M317 225c-3,2 -6,-4 -2,-6 4,-1 7,4 2,6zm1 91c-4,2 -6,-4 -3,-6 4,-1 6,5 3,6zm-8 -109l-9 0c-1,2 -1,2 -2,3 -2,1 -68,1 -71,1 2,2 5,5 6,7 7,0 65,0 68,0 3,1 4,3 5,6 1,4 3,5 5,7 7,4 9,-1 9,13l0 45c0,15 -1,12 -8,15 -7,4 -5,11 -10,13 -3,1 -101,0 -112,0 -15,0 -31,1 -45,0 0,0 0,1 0,1l1 0c2,0 100,0 101,0l-2 7c18,0 36,0 54,0 7,0 21,1 25,-3 4,-4 3,-16 3,-24 0,-6 0,-78 -1,-81 -3,-11 -16,-2 -17,-10z"/>
     <path class="fil1" d="M252 292c-2,3 -15,6 -19,7 -9,1 -17,1 -25,-1 -36,-10 -37,-45 -7,-58 7,-2 14,-4 23,-4 5,0 18,1 22,4 7,2 15,9 19,15 9,16 -2,33 -13,37zm-1 8c3,-2 10,-4 17,-13 16,-21 2,-47 -26,-55 -36,-10 -74,12 -68,41 5,27 40,38 67,31 4,-1 7,-3 10,-4z"/>
     <path class="fil1" d="M298 281c0,-1 7,-2 6,-10 0,-5 -4,-7 -9,-8 -4,0 -5,-2 -3,-4 2,-2 14,2 12,-5 -1,-3 -3,-2 -6,-2 0,-4 -1,-6 -5,-5 -2,2 -2,1 -2,5 -4,2 -8,5 -6,11 2,7 9,6 12,7 3,6 -6,4 -10,5 -2,0 -3,2 -2,4 1,2 3,2 6,2 0,3 0,6 3,6 3,0 4,-3 4,-6z"/>
     <path class="fil1" d="M150 252c-8,3 -10,17 4,18 3,0 4,3 2,4 -3,2 -14,-1 -12,5 1,2 3,2 6,2 0,3 0,5 3,6 3,0 4,-3 4,-6 0,-1 2,-1 3,-2 3,-3 4,-8 2,-11 -4,-8 -14,-2 -11,-9 2,-1 10,0 11,-2 2,-1 1,-3 0,-4 -1,-1 -3,-1 -5,-1 0,-4 0,-3 -2,-5 -5,-1 -5,1 -5,5z"/>
     <path class="fil1" d="M225 273c-7,2 -9,-11 -3,-13 8,-2 11,11 3,13zm0 7c16,-3 13,-29 -3,-27 -6,1 -11,8 -10,15 1,6 6,13 13,12z"/>
     <path class="fil5" d="M246 240c1,2 3,9 4,12 6,-3 13,1 14,5 3,7 -4,11 -9,11 0,2 0,5 0,7 0,2 0,2 -2,3 0,4 0,11 -1,14 11,-4 22,-21 13,-37 -4,-6 -12,-13 -19,-15z"/>
     <path class="fil6" d="M198 268c4,-1 9,-6 7,-11 -2,-4 -7,-7 -13,-6 -11,1 -13,16 1,18 1,-2 3,-3 5,-1z"/>
     <path class="fil6" d="M250 252c-4,1 -7,4 -7,8 0,3 4,8 7,7 2,0 3,0 5,1 5,0 12,-4 9,-11 -1,-4 -8,-8 -14,-5z"/>
     <path class="fil7" d="M225 273c8,-2 5,-15 -3,-13 -6,2 -4,15 3,13z"/>
     <path class="fil1" d="M198 268c-2,-2 -4,-1 -5,1 -1,3 -1,10 4,9 3,-1 3,-8 1,-10z"/>
     <path class="fil1" d="M255 268c-2,-1 -3,-1 -5,-1 -2,4 -3,11 3,11 2,-1 2,-1 2,-3 0,-2 0,-5 0,-7z"/>
     <path class="fil4" d="M318 316c3,-1 1,-7 -3,-6 -3,2 -1,8 3,6z"/>
     <path class="fil8" d="M317 225c5,-2 2,-7 -2,-6 -4,2 -1,8 2,6z"/>
     <path class="fil9" d="M133 316c0,0 3,-1 1,-4 0,-1 -2,-2 -4,-1 -3,1 -1,7 3,5z"/>
     <path class="fil10" d="M132 225c5,-2 2,-7 -2,-6 -4,2 -1,7 2,6z"/>
    </g>
    <g>
     <path class="fil1" d="M261 285c11,12 20,25 33,19 1,0 2,-1 3,-2l9 -9 57 -56 3 -4c3,-2 4,-4 5,-8 1,-8 -2,-11 -6,-16l-2 -2c-2,-1 -3,-2 -5,0 -5,6 11,9 5,19 -1,3 -52,53 -57,58 -5,6 -13,15 -19,15 -5,0 -14,-11 -19,-16 -13,-13 -26,-26 -39,-39l-77 -77c-4,-4 -10,-8 -7,-15 2,-3 54,-54 61,-61 4,-5 10,-12 15,-12 6,0 11,7 15,11 21,21 41,42 62,62 2,2 48,49 50,49 2,1 2,0 3,0 1,-3 2,-3 0,-5l-110 -111 -9 -9c-2,-1 -4,-2 -6,-3 -6,-2 -10,0 -15,3l-13 13 -56 56c-1,1 -1,2 -2,2 -3,5 -3,10 -1,15 1,2 7,8 11,13 37,36 74,73 111,110z"/>
     <path class="fil2" d="M213 126c3,-3 5,-5 8,-1 -1,3 0,3 -3,5 1,2 3,3 3,5 0,1 -1,3 -3,3 -2,0 -7,-6 -9,-7 -7,3 4,6 2,14 -1,4 -5,7 -10,7 -1,0 -2,-1 -4,-1 -2,2 -4,4 -6,1 -2,-2 0,-4 2,-6 -2,-2 -4,-3 -3,-6 3,-6 9,4 11,5 3,1 5,-2 2,-4 -9,-11 3,-19 10,-15zm38 105c-4,-2 -7,-3 -11,-5 -23,-14 -40,-46 -25,-69 17,-25 59,-13 78,19 1,-2 1,-5 2,-7l-64 -65c-6,4 -14,4 -20,0l-41 42c3,5 3,10 2,15 -1,2 -2,4 -2,5l72 72c3,-3 6,-4 9,-7z"/>
     <path class="fil3" d="M297 251c-2,2 -4,3 -6,1 -2,-2 -1,-4 1,-6 -1,-2 -3,-4 -3,-6 1,-2 4,-3 5,-1 4,2 8,10 10,3 -1,-2 -7,-7 -3,-13 3,-6 8,-5 12,-4 3,-2 2,-2 5,-2 4,2 3,4 0,7 2,2 4,3 3,6 -4,6 -9,-5 -12,-5 -3,0 -4,2 -1,5 3,4 4,8 1,12 -5,6 -10,2 -12,3zm-2 -82c-1,2 -1,5 -2,7 14,26 5,54 -21,58 -11,1 -17,-2 -21,-3 -3,3 -6,4 -9,7l35 35c2,1 9,-6 20,0l42 -41c-4,-6 -4,-14 0,-20l-44 -43z"/>
     <path class="fil1" d="M242 238l-72 -72c0,-1 1,-3 2,-5 1,-5 1,-10 -2,-15l41 -42c6,4 14,4 20,0l64 65 44 43c-4,6 -4,14 0,20l-42 41c-11,-6 -18,1 -20,0l-35 -35zm55 -77l-60 -59c-9,-10 -9,2 -20,-2 -4,-1 -6,-4 -9,-1l-40 40c-11,10 1,9 -2,20 -2,5 -4,4 -2,10 10,11 22,21 32,32 8,8 76,77 80,79 4,2 8,-5 16,-2 7,3 5,5 16,-6l31 -31c10,-11 6,-8 4,-16 -1,-3 -1,-5 1,-8 1,-3 2,-5 0,-8 -1,-3 -43,-43 -47,-48z"/>
     <path class="fil4" d="M247 198c-6,-4 -5,-12 -1,-17 4,-6 12,-7 17,-3 13,9 -3,30 -16,20zm-15 -30c-8,-11 2,-21 12,-13 5,4 6,9 4,12 -2,6 -8,6 -12,4 0,3 -5,8 -8,6 -4,-3 1,-7 4,-9zm25 58c3,-1 8,-7 11,-9 -5,-4 2,-9 5,-10 -3,-2 -2,-8 0,-10 3,-3 8,-3 11,-1 1,-3 5,-9 5,-11 0,-5 -9,-15 -12,-19 -6,-6 -12,-10 -19,-12 -30,-13 -54,12 -36,45 4,7 10,13 16,18 4,3 16,10 19,9z"/>
     <path class="fil4" d="M220 94c-4,-1 -1,-7 2,-6 4,2 2,8 -2,6zm-64 64c-4,-1 -2,-6 2,-5 2,0 2,2 2,4 -2,3 -4,2 -4,1zm8 11c-2,-6 0,-5 2,-10 3,-11 -9,-10 2,-20l40 -40c3,-3 5,0 9,1 11,4 11,-8 20,2l60 59c0,-3 1,-7 1,-9 -21,-20 -41,-41 -62,-62 -4,-4 -9,-11 -15,-11 -5,0 -11,7 -15,12 -7,7 -59,58 -61,61 -3,7 3,11 7,15l77 77 6 -3c0,0 -70,-69 -70,-71l-1 -1c0,0 0,0 0,0z"/>
     <path class="fil5" d="M351 225c-4,-2 -2,-7 2,-6 4,2 2,7 -2,6zm-65 64c-4,-1 -1,-7 3,-5 4,2 1,7 -3,5zm72 -82l-7 -6c-1,0 -1,1 -3,0 -2,0 -48,-47 -50,-49 0,2 -1,6 -1,9 4,5 46,45 47,48 2,3 1,5 0,8 -2,3 -2,5 -1,8 2,8 6,5 -4,16l-31 31c-11,11 -9,9 -16,6 -8,-3 -12,4 -16,2 -4,-2 -72,-71 -80,-79 -10,-11 -22,-21 -32,-32 0,0 0,0 0,0l1 1c0,2 70,71 70,71l-6 3c13,13 26,26 39,39 5,5 14,16 19,16 6,0 14,-9 19,-15 5,-5 56,-55 57,-58 6,-10 -10,-13 -5,-19z"/>
     <path class="fil1" d="M257 226c-3,1 -15,-6 -19,-9 -6,-5 -12,-11 -16,-18 -18,-33 6,-58 36,-45 7,2 13,6 19,12 3,4 12,14 12,19 4,6 5,17 3,24 -5,18 -25,21 -35,17zm-6 5c4,1 10,4 21,3 26,-4 35,-32 21,-58 -19,-32 -61,-44 -78,-19 -15,23 2,55 25,69 4,2 7,3 11,5z"/>
     <path class="fil1" d="M297 251c2,-1 7,3 12,-3 3,-4 2,-8 -1,-12 -3,-3 -2,-5 1,-5 3,0 8,11 12,5 1,-3 -1,-4 -3,-6 3,-3 4,-5 0,-7 -3,0 -2,0 -5,2 -4,-1 -9,-2 -12,4 -4,6 2,11 3,13 -2,7 -6,-1 -10,-3 -1,-2 -4,-1 -5,1 0,2 2,4 3,6 -2,2 -3,4 -1,6 2,2 4,1 6,-1z"/>
     <path class="fil1" d="M213 126c-7,-4 -19,4 -10,15 3,2 1,5 -2,4 -2,-1 -8,-11 -11,-5 -1,3 1,4 3,6 -2,2 -4,4 -2,6 2,3 4,1 6,-1 2,0 3,1 4,1 5,0 9,-3 10,-7 2,-8 -9,-11 -2,-14 2,1 7,7 9,7 2,0 3,-2 3,-3 0,-2 -2,-3 -3,-5 3,-2 2,-2 3,-5 -3,-4 -5,-2 -8,1z"/>
     <path class="fil1" d="M252 193c-7,-3 1,-14 7,-11 6,4 0,15 -7,11zm-5 5c13,10 29,-11 16,-20 -5,-4 -13,-3 -17,3 -4,5 -5,13 1,17z"/>
     <path class="fil5" d="M289 185c0,2 -4,8 -5,11 6,3 8,10 6,14 -3,6 -10,5 -14,1 -1,2 -3,4 -4,5 -2,1 -3,1 -4,1 -3,2 -8,8 -11,9 10,4 30,1 35,-17 2,-7 1,-18 -3,-24z"/>
     <path class="fil6" d="M236 171c4,2 10,2 12,-4 2,-3 1,-8 -4,-12 -10,-8 -20,2 -12,13 2,-1 4,0 4,3z"/>
     <path class="fil6" d="M284 196c-3,-2 -8,-2 -11,1 -2,2 -3,8 0,10 2,1 3,2 3,4 4,4 11,5 14,-1 2,-4 0,-11 -6,-14z"/>
     <path class="fil7" d="M252 193c7,4 13,-7 7,-11 -6,-3 -14,8 -7,11z"/>
     <path class="fil1" d="M236 171c0,-3 -2,-4 -4,-3 -3,2 -8,6 -4,9 3,2 8,-3 8,-6z"/>
     <path class="fil1" d="M276 211c0,-2 -1,-3 -3,-4 -3,1 -10,6 -5,10 1,0 2,0 4,-1 1,-1 3,-3 4,-5z"/>
     <path class="fil4" d="M286 289c4,2 7,-3 3,-5 -4,-2 -7,4 -3,5z"/>
     <path class="fil8" d="M351 225c4,1 6,-4 2,-6 -4,-1 -6,4 -2,6z"/>
     <path class="fil9" d="M156 158c0,1 2,2 4,-1 0,-2 0,-4 -2,-4 -4,-1 -6,4 -2,5z"/>
     <path class="fil10" d="M220 94c4,2 6,-4 2,-6 -3,-1 -6,5 -2,6z"/>
    </g>
    <g>
     <path class="fil1" d="M268 227c0,17 -3,32 11,37 1,1 2,1 3,1l12 0 80 0 6 0c3,0 5,0 8,-2 7,-5 7,-10 7,-16l0 -3c0,-2 0,-3 -3,-4 -8,1 2,15 -10,18 -3,1 -74,1 -81,1 -8,0 -20,1 -24,-3 -4,-4 -2,-19 -2,-25 0,-19 0,-37 0,-55l0 -109c0,-6 -2,-13 6,-16 3,-1 76,0 86,0 6,0 15,-2 19,2 4,4 3,13 3,19 0,29 -1,58 0,87 0,3 -1,69 0,71 1,1 2,1 3,1 3,-1 3,-1 3,-3l0 -156 0 -13c0,-2 0,-4 -1,-6 -3,-6 -8,-8 -13,-9l-19 0 -78 0c-2,0 -3,0 -3,0 -6,1 -9,5 -12,10 -1,2 0,11 -1,17 0,52 1,104 0,156z"/>
     <path class="fil2" d="M347 81c4,0 7,0 6,5 -2,2 -2,1 -5,1 -1,2 0,5 -1,6 -1,1 -4,1 -5,0 -2,-2 -1,-9 -1,-11 -8,-3 -2,6 -9,11 -4,2 -9,1 -12,-2 -1,-1 -1,-3 -2,-4 -3,0 -5,0 -5,-3 0,-3 3,-3 5,-3 0,-3 0,-5 2,-6 7,-2 4,9 5,11 1,2 4,2 5,-2 1,-13 15,-11 17,-3zm-48 101c-1,-4 -3,-7 -4,-11 -6,-26 4,-61 31,-66 30,-6 51,32 42,68 2,0 5,-3 7,-4l0 -91c-7,-1 -12,-7 -14,-13l-59 0c-1,5 -4,9 -9,11 -2,2 -4,2 -5,3l0 101c4,1 7,2 11,2z"/>
     <path class="fil3" d="M318 228c-3,0 -5,0 -5,-3 0,-3 2,-3 5,-3 0,-3 0,-5 2,-6 2,-1 4,0 5,2 0,4 -2,13 4,10 1,-3 0,-10 7,-12 6,-2 10,2 11,6 4,0 3,0 6,2 1,4 -1,4 -5,4 0,3 0,6 -3,7 -7,1 -2,-10 -5,-12 -2,-3 -4,-1 -4,2 0,6 -3,9 -8,10 -7,0 -8,-6 -10,-7zm57 -59c-2,1 -5,4 -7,4 -9,28 -34,41 -55,26 -10,-7 -11,-14 -14,-17 -4,0 -7,-1 -11,-2l0 50c1,2 11,2 14,15l59 0c1,-7 7,-13 14,-14l0 -62z"/>
     <path class="fil1" d="M288 180l0 -101c1,-1 3,-1 5,-3 5,-2 8,-6 9,-11l59 0c2,6 7,12 14,13l0 91 0 62c-7,1 -13,7 -14,14l-59 0c-3,-13 -13,-13 -14,-15l0 -50zm93 -15l0 -84c0,-13 -8,-6 -13,-15 -2,-4 -1,-7 -6,-8l-56 0c-15,0 -6,7 -16,13 -5,3 -5,0 -8,6 -1,14 0,30 0,45 0,11 -1,109 1,112 1,5 9,2 12,10 3,7 0,7 15,7l45 0c14,0 10,-2 14,-8 1,-3 3,-4 6,-5 3,-2 5,-2 6,-5 1,-4 0,-61 0,-68z"/>
     <path class="fil4" d="M320 156c-1,-7 5,-13 11,-13 8,-1 14,4 15,10 2,16 -24,19 -26,3zm11 -32c2,-14 16,-13 17,-1 1,6 -2,11 -5,12 -6,3 -10,-2 -11,-6 -3,2 -10,2 -10,-2 -1,-4 5,-4 9,-3zm-24 59c3,1 11,1 15,1 -1,-6 7,-5 10,-4 0,-3 4,-6 8,-6 4,-1 7,3 8,6 3,-1 9,-2 11,-4 3,-3 5,-17 5,-22 0,-8 -2,-15 -5,-22 -12,-30 -47,-29 -57,7 -2,8 -3,16 -2,24 1,5 5,18 7,20z"/>
     <path class="fil4" d="M374 63c-1,-3 5,-6 6,-2 1,3 -4,7 -6,2zm-91 0c-2,-3 4,-5 6,-2 1,2 0,3 -2,4 -3,1 -3,-1 -4,-2zm-1 14c3,-6 3,-3 8,-6 10,-6 1,-13 16,-13l56 0c5,1 4,4 6,8 5,9 13,2 13,15l0 84c3,-1 6,-4 8,-6 -1,-29 0,-58 0,-87 0,-6 1,-15 -3,-19 -4,-4 -13,-2 -19,-2 -10,0 -83,-1 -86,0 -8,3 -6,10 -6,16l0 109 6 2c0,0 0,-98 0,-100l1 -1c0,0 0,0 0,0z"/>
     <path class="fil5" d="M374 248c-1,-3 5,-6 6,-2 2,4 -4,6 -6,2zm-91 0c-2,-4 5,-6 6,-2 1,4 -4,6 -6,2zm109 -8l0 -9c-1,0 -2,0 -3,-1 -1,-2 0,-68 0,-71 -2,2 -5,5 -8,6 0,7 1,64 0,68 -1,3 -3,3 -6,5 -3,1 -5,2 -6,5 -4,6 0,8 -14,8l-45 0c-15,0 -12,0 -15,-7 -3,-8 -11,-5 -12,-10 -2,-3 -1,-101 -1,-112 0,-15 -1,-31 0,-45 0,0 0,0 0,0l-1 1c0,2 0,100 0,100l-6 -2c0,18 0,36 0,55 0,6 -2,21 2,25 4,4 16,3 24,3 7,0 78,0 81,-1 12,-3 2,-17 10,-18z"/>
     <path class="fil1" d="M307 183c-2,-2 -6,-15 -7,-20 -1,-8 0,-16 2,-24 10,-36 45,-37 57,-7 3,7 5,14 5,22 0,5 -2,19 -5,22 -2,7 -9,16 -15,19 -16,10 -32,-2 -37,-12zm-8 -1c3,3 4,10 14,17 21,15 46,2 55,-26 9,-36 -12,-74 -42,-68 -27,5 -37,40 -31,66 1,4 3,7 4,11z"/>
     <path class="fil1" d="M318 228c2,1 3,7 10,7 5,-1 8,-4 8,-10 0,-3 2,-5 4,-2 3,2 -2,13 5,12 3,-1 3,-4 3,-7 4,0 6,0 5,-4 -3,-2 -2,-2 -6,-2 -1,-4 -5,-8 -11,-6 -7,2 -6,9 -7,12 -6,3 -4,-6 -4,-10 -1,-2 -3,-3 -5,-2 -2,1 -2,3 -2,6 -3,0 -5,0 -5,3 0,3 2,3 5,3z"/>
     <path class="fil1" d="M347 81c-2,-8 -16,-10 -17,3 -1,4 -4,4 -5,2 -1,-2 2,-13 -5,-11 -2,1 -2,3 -2,6 -2,0 -5,0 -5,3 0,3 2,3 5,3 1,1 1,3 2,4 3,3 8,4 12,2 7,-5 1,-14 9,-11 0,2 -1,9 1,11 1,1 4,1 5,0 1,-1 0,-4 1,-6 3,0 3,1 5,-1 1,-5 -2,-5 -6,-5z"/>
     <path class="fil1" d="M327 156c-3,-7 10,-10 12,-3 2,8 -10,10 -12,3zm-7 0c2,16 28,13 26,-3 -1,-6 -7,-11 -15,-10 -6,0 -12,6 -11,13z"/>
     <path class="fil5" d="M359 176c-2,2 -8,3 -11,4 2,7 -1,13 -6,15 -6,2 -10,-4 -11,-9 -2,0 -4,0 -6,0 -3,0 -3,-1 -3,-2 -4,0 -12,0 -15,-1 5,10 21,22 37,12 6,-3 13,-12 15,-19z"/>
     <path class="fil6" d="M332 129c1,4 5,9 11,6 3,-1 6,-6 5,-12 -1,-12 -15,-13 -17,1 1,1 2,3 1,5z"/>
     <path class="fil6" d="M348 180c-1,-3 -4,-7 -8,-6 -4,0 -8,3 -8,6 1,3 1,4 -1,6 1,5 5,11 11,9 5,-2 8,-8 6,-15z"/>
     <path class="fil7" d="M327 156c2,7 14,5 12,-3 -2,-7 -15,-4 -12,3z"/>
     <path class="fil1" d="M332 129c1,-2 0,-4 -1,-5 -4,-1 -10,-1 -9,3 0,4 7,4 10,2z"/>
     <path class="fil1" d="M331 186c2,-2 2,-3 1,-6 -3,-1 -11,-2 -10,4 0,1 0,2 3,2 2,0 4,0 6,0z"/>
     <path class="fil4" d="M283 248c2,4 7,2 6,-2 -1,-4 -8,-2 -6,2z"/>
     <path class="fil8" d="M374 248c2,4 8,2 6,-2 -1,-4 -7,-1 -6,2z"/>
     <path class="fil9" d="M283 63c1,1 1,3 4,2 2,-1 3,-2 2,-4 -2,-3 -8,-1 -6,2z"/>
     <path class="fil10" d="M374 63c2,5 7,1 6,-2 -1,-4 -7,-1 -6,2z"/>
    </g>
    <g>
     <path class="fil1" d="M314 191c-12,12 -25,20 -19,34 1,1 1,2 2,3l9 9 57 56 3 4c3,2 5,4 8,4 8,2 12,-1 16,-6l2 -2c2,-1 2,-3 1,-4 -7,-5 -9,11 -20,5 -3,-1 -53,-52 -58,-57 -5,-6 -15,-13 -14,-19 0,-6 11,-15 16,-20 12,-12 25,-25 38,-38l77 -77c4,-4 9,-10 16,-7 3,1 54,53 61,60 4,5 12,10 12,16 0,5 -7,11 -12,15 -20,21 -41,41 -61,62 -2,2 -49,48 -50,50 0,1 1,1 1,3 2,1 3,2 5,0l110 -111 9 -9c2,-1 3,-3 3,-5 2,-6 1,-11 -3,-15l-13 -14 -55 -55c-2,-1 -2,-2 -3,-2 -4,-3 -9,-3 -14,-1 -3,1 -9,7 -13,11 -37,37 -74,74 -111,110z"/>
     <path class="fil2" d="M474 144c3,3 4,4 0,7 -3,0 -2,0 -5,-2 -1,1 -2,3 -4,3 -2,0 -4,-1 -4,-3 0,-3 6,-7 8,-9 -4,-7 -6,3 -14,1 -5,-1 -8,-5 -7,-9 0,-2 1,-3 0,-4 -2,-2 -3,-4 -1,-6 2,-2 4,0 6,2 2,-2 4,-4 6,-3 6,3 -4,8 -5,11 0,2 2,4 5,2 10,-9 19,2 15,10zm-106 37c2,-3 3,-6 5,-10 14,-23 46,-40 69,-25 25,17 13,59 -19,77 2,2 5,2 8,3l64 -64c-4,-6 -4,-14 0,-20l-42 -41c-4,2 -9,3 -14,2 -3,-1 -5,-3 -6,-2l-71 72c2,2 4,6 6,8z"/>
     <path class="fil3" d="M349 227c-2,-1 -4,-3 -2,-6 3,-2 4,0 7,2 2,-2 3,-4 5,-3 2,1 3,3 2,5 -3,3 -11,8 -4,10 3,-1 7,-7 13,-4 6,3 6,9 4,13 3,2 3,2 3,5 -3,3 -4,2 -7,-1 -2,2 -4,5 -6,3 -7,-3 4,-8 5,-12 0,-3 -3,-3 -5,-1 -4,4 -9,4 -13,1 -5,-5 -2,-10 -2,-12zm82 -1c-3,-1 -6,-1 -8,-3 -26,14 -53,6 -57,-20 -2,-12 2,-18 2,-22 -2,-2 -4,-6 -6,-8l-35 35c-2,2 6,9 -1,20l42 42c5,-4 14,-4 19,0l44 -44z"/>
     <path class="fil1" d="M362 173l71 -72c1,-1 3,1 6,2 5,1 10,0 14,-2l42 41c-4,6 -4,14 0,20l-64 64 -44 44c-5,-4 -14,-4 -19,0l-42 -42c7,-11 -1,-18 1,-20l35 -35zm76 54l60 -59c9,-9 -2,-10 1,-20 2,-4 4,-6 1,-10l-39 -39c-11,-11 -9,0 -21,-3 -5,-1 -4,-3 -9,-1 -11,10 -22,21 -32,32 -8,8 -78,76 -79,79 -2,5 4,9 2,16 -3,8 -5,6 5,16l32 32c10,10 8,5 16,4 2,-1 4,-1 8,0 3,2 4,3 7,1 3,-2 44,-43 48,-48z"/>
     <path class="fil4" d="M401 178c5,-6 13,-6 18,-2 6,5 7,13 3,18 -10,13 -31,-3 -21,-16zm31 -15c11,-9 20,2 13,12 -4,4 -9,6 -13,4 -5,-2 -5,-8 -3,-12 -4,-1 -8,-6 -6,-8 2,-4 7,0 9,4zm-59 25c2,3 7,8 10,10 4,-4 9,2 10,5 1,-2 7,-2 10,1 3,3 2,7 1,11 3,1 8,5 11,5 4,-1 15,-9 18,-13 6,-6 10,-12 13,-18 13,-31 -13,-55 -45,-36 -7,4 -14,9 -19,16 -2,4 -9,15 -9,19z"/>
     <path class="fil4" d="M506 151c1,-4 7,-2 5,2 -2,3 -7,2 -5,-2zm-65 -64c1,-5 7,-2 6,1 -1,2 -3,3 -4,2 -3,-1 -2,-3 -2,-3zm-10 8c5,-2 4,0 9,1 12,3 10,-8 21,3l39 39c3,4 1,6 -1,10 -3,10 8,11 -1,20l-60 59c3,1 7,1 10,2 20,-21 41,-41 61,-62 5,-4 12,-10 12,-15 0,-6 -8,-11 -12,-16 -7,-7 -58,-59 -61,-60 -7,-3 -12,3 -16,7l-77 77 3 6c1,0 70,-70 71,-71l1 0c0,0 1,0 1,0z"/>
     <path class="fil5" d="M375 281c1,-3 7,-1 5,3 -1,4 -7,2 -5,-3zm-65 -64c2,-4 7,-1 6,2 -2,5 -7,2 -6,-2zm83 72l6 -7c0,-2 -1,-2 -1,-3 1,-2 48,-48 50,-50 -3,-1 -7,-1 -10,-2 -4,5 -45,46 -48,48 -3,2 -4,1 -7,-1 -4,-1 -6,-1 -8,0 -8,1 -6,6 -16,-4l-32 -32c-10,-10 -8,-8 -5,-16 2,-7 -4,-11 -2,-16 1,-3 71,-71 79,-79 10,-11 21,-22 32,-32 0,0 -1,0 -1,0l-1 0c-1,1 -70,71 -71,71l-3 -6c-13,13 -26,26 -38,38 -5,5 -16,14 -16,20 -1,6 9,13 14,19 5,5 55,56 58,57 11,6 13,-10 20,-5z"/>
     <path class="fil1" d="M373 188c0,-4 7,-15 9,-19 5,-7 12,-12 19,-16 32,-19 58,5 45,36 -3,6 -7,12 -13,18 -3,4 -14,12 -18,13 -7,4 -18,4 -24,3 -18,-5 -22,-25 -18,-35zm-5 -7c0,4 -4,10 -2,22 4,26 31,34 57,20 32,-18 44,-60 19,-77 -23,-15 -55,2 -69,25 -2,4 -3,7 -5,10z"/>
     <path class="fil1" d="M349 227c0,2 -3,7 2,12 4,3 9,3 13,-1 2,-2 5,-2 5,1 -1,4 -12,9 -5,12 2,2 4,-1 6,-3 3,3 4,4 7,1 0,-3 0,-3 -3,-5 2,-4 2,-10 -4,-13 -6,-3 -10,3 -13,4 -7,-2 1,-7 4,-10 1,-2 0,-4 -2,-5 -2,-1 -3,1 -5,3 -3,-2 -4,-4 -7,-2 -2,3 0,5 2,6z"/>
     <path class="fil1" d="M474 144c4,-8 -5,-19 -15,-10 -3,2 -5,0 -5,-2 1,-3 11,-8 5,-11 -2,-1 -4,1 -6,3 -2,-2 -4,-4 -6,-2 -2,2 -1,4 1,6 1,1 0,2 0,4 -1,4 2,8 7,9 8,2 10,-8 14,-1 -2,2 -8,6 -8,9 0,2 2,3 4,3 2,0 3,-2 4,-3 3,2 2,2 5,2 4,-3 3,-4 0,-7z"/>
     <path class="fil1" d="M406 182c4,-6 14,1 11,7 -4,7 -15,0 -11,-7zm-5 -4c-10,13 11,29 21,16 4,-5 3,-13 -3,-18 -5,-4 -13,-4 -18,2z"/>
     <path class="fil5" d="M415 220c-3,0 -8,-4 -11,-5 -3,6 -10,8 -14,6 -7,-3 -5,-10 -2,-15 -1,-1 -3,-2 -4,-4 -2,-2 -2,-2 -1,-4 -3,-2 -8,-7 -10,-10 -4,10 0,30 18,35 6,1 17,1 24,-3z"/>
     <path class="fil6" d="M429 167c-2,4 -2,10 3,12 4,2 9,0 13,-4 7,-10 -2,-21 -13,-12 0,2 0,4 -3,4z"/>
     <path class="fil6" d="M404 215c1,-4 2,-8 -1,-11 -3,-3 -9,-3 -10,-1 -2,3 -2,4 -5,3 -3,5 -5,12 2,15 4,2 11,0 14,-6z"/>
     <path class="fil7" d="M406 182c-4,7 7,14 11,7 3,-6 -7,-13 -11,-7z"/>
     <path class="fil1" d="M429 167c3,0 3,-2 3,-4 -2,-4 -7,-8 -9,-4 -2,2 2,7 6,8z"/>
     <path class="fil1" d="M388 206c3,1 3,0 5,-3 -1,-3 -6,-9 -10,-5 -1,2 -1,2 1,4 1,2 3,3 4,4z"/>
     <path class="fil4" d="M310 217c-1,4 4,7 6,2 1,-3 -4,-6 -6,-2z"/>
     <path class="fil8" d="M375 281c-2,5 4,7 5,3 2,-4 -4,-6 -5,-3z"/>
     <path class="fil9" d="M441 87c0,0 -1,2 2,3 1,1 3,0 4,-2 1,-3 -5,-6 -6,-1z"/>
     <path class="fil10" d="M506 151c-2,4 3,5 5,2 2,-4 -4,-6 -5,-2z"/>
    </g>
    <g>
     <path class="fil1" d="M372 199c-16,0 -31,-4 -37,10 0,1 0,2 -1,3l0 13 0 80 0 5c0,4 1,6 3,9 5,7 9,7 15,7l3 0c2,0 4,-1 4,-3 -1,-8 -14,2 -18,-10 -1,-3 0,-74 0,-81 0,-8 -2,-20 3,-24 4,-4 18,-3 25,-3 18,0 36,0 54,0l109 0c6,0 14,-1 16,6 1,4 1,77 1,86 0,7 1,16 -3,20 -4,4 -12,2 -19,2 -29,0 -58,0 -87,0 -3,0 -68,0 -70,1 -2,1 -1,1 -2,3 1,2 1,3 4,3l156 0 12 0c3,0 5,-1 6,-2 6,-2 8,-7 9,-12l0 -19 0 -79c0,-1 0,-2 0,-3 -1,-5 -5,-9 -9,-11 -3,-1 -12,-1 -17,-1 -52,0 -105,0 -157,0z"/>
     <path class="fil2" d="M518 278c0,4 0,6 -4,6 -2,-3 -2,-2 -2,-6 -2,0 -4,0 -5,-1 -2,-1 -2,-3 -1,-4 2,-2 9,-1 12,-2 2,-7 -7,-1 -11,-8 -2,-4 -2,-9 2,-12 1,-1 2,-1 3,-2 0,-3 0,-6 3,-5 3,0 3,2 3,5 3,0 6,0 7,2 2,7 -9,4 -12,5 -2,1 -2,4 2,4 14,1 12,15 3,18zm-101 -48c4,-1 7,-3 11,-4 27,-7 62,4 67,31 6,30 -33,51 -68,41 0,3 2,5 3,8l91 0c1,-7 7,-13 14,-14l0 -59c-6,-1 -9,-4 -12,-9 -1,-2 -1,-5 -3,-5l-101 0c0,4 -2,7 -2,11z"/>
     <path class="fil3" d="M371 249c0,-3 0,-6 3,-5 4,0 3,2 4,5 2,0 5,0 6,2 1,2 -1,4 -3,4 -4,1 -12,-1 -9,5 3,1 10,0 12,7 1,6 -3,9 -6,11 0,4 0,3 -2,6 -5,0 -5,-2 -5,-6 -3,0 -6,1 -6,-2 -2,-7 9,-3 12,-5 2,-2 0,-4 -3,-4 -5,0 -9,-3 -9,-8 -1,-8 5,-8 6,-10zm59 57c-1,-3 -3,-5 -3,-8 -29,-8 -42,-34 -27,-54 8,-10 14,-12 17,-14 0,-4 2,-7 2,-11l-50 0c-2,1 -2,11 -14,14l0 59c6,1 12,7 13,14l62 0z"/>
     <path class="fil1" d="M419 219l101 0c2,0 2,3 3,5 3,5 6,8 12,9l0 59c-7,1 -13,7 -14,14l-91 0 -62 0c-1,-7 -7,-13 -13,-14l0 -59c12,-3 12,-13 14,-14l50 0zm16 93l84 0c12,0 5,-8 15,-13 4,-2 7,-1 7,-6l0 -56c0,-15 -6,-6 -12,-16 -3,-5 -1,-6 -6,-8 -15,-1 -31,0 -45,0 -11,0 -109,-1 -112,0 -5,2 -3,9 -10,13 -8,3 -8,0 -8,15l0 45c0,14 2,9 9,14 2,1 4,3 5,6 1,3 1,5 5,6 3,1 61,0 68,0z"/>
     <path class="fil4" d="M443 251c8,-1 13,5 14,11 1,7 -4,14 -11,15 -16,2 -19,-24 -3,-26zm33 11c13,2 12,16 0,17 -6,1 -10,-2 -12,-6 -2,-5 2,-10 6,-11 -1,-2 -1,-9 2,-10 5,-1 4,6 4,10zm-59 -24c-2,3 -1,11 -1,14 6,0 5,8 3,11 3,-1 7,4 7,7 0,5 -3,7 -7,8 1,4 2,10 4,12 3,3 17,4 22,4 9,0 15,-1 22,-4 31,-12 29,-48 -7,-57 -7,-3 -16,-3 -24,-2 -4,1 -17,4 -19,7z"/>
     <path class="fil4" d="M536 305c4,-1 6,4 2,6 -3,1 -6,-4 -2,-6zm0 -91c4,-2 6,4 3,5 -2,2 -4,0 -5,-1 -1,-3 2,-4 2,-4zm-13 -1c5,2 3,3 6,8 6,10 12,1 12,16l0 56c0,5 -3,4 -7,6 -10,5 -3,13 -15,13l-84 0c1,2 4,6 5,7 29,0 58,0 87,0 7,0 15,2 19,-2 4,-4 3,-13 3,-20 0,-9 0,-82 -1,-86 -2,-7 -10,-6 -16,-6l-109 0 -2 7c1,0 99,0 101,0l0 1c1,0 1,0 1,0z"/>
     <path class="fil5" d="M351 305c4,-2 6,4 2,6 -3,1 -6,-4 -2,-6zm0 -91c4,-2 6,4 3,6 -5,1 -6,-5 -3,-6zm8 109l9 0c1,-2 0,-2 2,-3 2,-1 67,-1 70,-1 -1,-1 -4,-5 -5,-7 -7,0 -65,1 -68,0 -4,-1 -4,-3 -5,-6 -1,-3 -3,-5 -5,-6 -7,-5 -9,0 -9,-14l0 -45c0,-15 0,-12 8,-15 7,-4 5,-11 10,-13 3,-1 101,0 112,0 14,0 30,-1 45,0 0,0 0,0 -1,0l0 -1c-2,0 -100,0 -101,0l2 -7c-18,0 -36,0 -54,0 -7,0 -21,-1 -25,3 -5,4 -3,16 -3,24 0,7 -1,78 0,81 4,12 17,2 18,10z"/>
     <path class="fil1" d="M417 238c2,-3 15,-6 19,-7 8,-1 17,-1 24,2 36,9 38,45 7,57 -7,3 -13,4 -22,4 -5,0 -19,-1 -22,-4 -7,-2 -15,-9 -19,-15 -9,-16 2,-33 13,-37zm0 -8c-3,2 -9,4 -17,14 -15,20 -2,46 27,54 35,10 74,-11 68,-41 -5,-27 -40,-38 -67,-31 -4,1 -7,3 -11,4z"/>
     <path class="fil1" d="M371 249c-1,2 -7,2 -6,10 0,5 4,8 9,8 3,0 5,2 3,4 -3,2 -14,-2 -12,5 0,3 3,2 6,2 0,4 0,6 5,6 2,-3 2,-2 2,-6 3,-2 7,-5 6,-11 -2,-7 -9,-6 -12,-7 -3,-6 5,-4 9,-5 2,0 4,-2 3,-4 -1,-2 -4,-2 -6,-2 -1,-3 0,-5 -4,-5 -3,-1 -3,2 -3,5z"/>
     <path class="fil1" d="M518 278c9,-3 11,-17 -3,-18 -4,0 -4,-3 -2,-4 3,-1 14,2 12,-5 -1,-2 -4,-2 -7,-2 0,-3 0,-5 -3,-5 -3,-1 -3,2 -3,5 -1,1 -2,1 -3,2 -4,3 -4,8 -2,12 4,7 13,1 11,8 -3,1 -10,0 -12,2 -1,1 -1,3 1,4 1,1 3,1 5,1 0,4 0,3 2,6 4,0 4,-2 4,-6z"/>
     <path class="fil1" d="M444 257c7,-2 9,11 2,13 -7,2 -10,-10 -2,-13zm-1 -6c-16,2 -13,28 3,26 7,-1 12,-8 11,-15 -1,-6 -6,-12 -14,-11z"/>
     <path class="fil5" d="M423 290c-2,-2 -3,-8 -4,-12 -6,3 -13,-1 -15,-5 -2,-7 4,-11 10,-11 -1,-2 -1,-5 0,-6 0,-3 0,-3 2,-4 0,-3 -1,-11 1,-14 -11,4 -22,21 -13,37 4,6 12,13 19,15z"/>
     <path class="fil6" d="M470 262c-4,1 -8,6 -6,11 2,4 6,7 12,6 12,-1 13,-15 0,-17 -2,1 -3,2 -6,0z"/>
     <path class="fil6" d="M419 278c4,-1 7,-3 7,-8 0,-3 -4,-8 -7,-7 -3,1 -3,1 -5,-1 -6,0 -12,4 -10,11 2,4 9,8 15,5z"/>
     <path class="fil7" d="M444 257c-8,3 -5,15 2,13 7,-2 5,-15 -2,-13z"/>
     <path class="fil1" d="M470 262c3,2 4,1 6,0 0,-4 1,-11 -4,-10 -3,1 -3,8 -2,10z"/>
     <path class="fil1" d="M414 262c2,2 2,2 5,1 2,-3 3,-11 -3,-11 -2,1 -2,1 -2,4 -1,1 -1,4 0,6z"/>
     <path class="fil4" d="M351 214c-3,1 -2,7 3,6 3,-2 1,-8 -3,-6z"/>
     <path class="fil8" d="M351 305c-4,2 -1,7 2,6 4,-2 2,-8 -2,-6z"/>
     <path class="fil9" d="M536 214c0,0 -3,1 -2,4 1,1 3,3 5,1 3,-1 1,-7 -3,-5z"/>
     <path class="fil10" d="M536 305c-4,2 -1,7 2,6 4,-2 2,-7 -2,-6z"/>
    </g>
   </g>
  </g>
 </g>
</svg>
