<?xml version="1.0" encoding="UTF-8"?>
<!DOCTYPE svg PUBLIC "-//W3C//DTD SVG 1.1//EN" "http://www.w3.org/Graphics/SVG/1.1/DTD/svg11.dtd">
<!-- Creator: CorelDRAW X7 -->
<svg xmlns="http://www.w3.org/2000/svg" xml:space="preserve" width="1920px" height="1080px" version="1.1" style="shape-rendering:geometricPrecision; text-rendering:geometricPrecision; image-rendering:optimizeQuality; fill-rule:evenodd; clip-rule:evenodd"
viewBox="0 0 209 117"
 xmlns:xlink="http://www.w3.org/1999/xlink">
 <defs>
  <style type="text/css">
   <![CDATA[
    .fil1 {fill:#00A182}
    .fil0 {fill:#FFCD1B}
   ]]>
  </style>
 </defs>
 <g id="Capa_x0020_1">
  <metadata id="CorelCorpID_0Corel-Layer"/>
  <g id="_1592080910672">
   <rect class="fil0" width="209" height="117"/>
   <path class="fil1" d="M54 72c-8,5 -17,2 -20,-5 -3,-8 3,-17 11,-17 7,0 8,4 11,3 1,0 3,-3 1,-5 -2,-3 -17,-8 -25,2 -5,6 -6,15 -2,22 5,9 17,10 26,5 4,-3 3,-4 3,-11 0,-3 1,-5 -1,-6 -1,0 -5,0 -7,0 -2,0 -5,-1 -6,1 -2,2 -1,4 1,4 2,0 5,0 8,0l0 7zm119 -8c1,-4 -5,-6 -6,-2 -2,4 5,6 6,2zm-108 13c0,3 5,3 6,0l0 -32c-1,-3 -6,-3 -6,0l0 32zm50 -11c-1,-3 -4,-12 -5,-13 -3,-1 -5,1 -5,4l6 12c1,2 1,4 2,6 1,2 2,5 5,5 2,0 3,-3 4,-5 1,-2 2,-4 3,-6l5 -12c1,-3 -2,-5 -4,-4 -2,1 -6,13 -7,16 0,1 -1,2 -1,3l-3 -6zm53 -17c-1,-2 -3,-5 -4,-7 -1,-4 2,-7 6,-7 4,0 7,3 5,8 0,1 -4,7 -5,8l-2 -2zm2 -20c-7,0 -13,6 -12,14 1,4 5,8 8,12 1,1 1,3 3,3 4,0 4,-1 5,-3 1,-2 2,-3 3,-4 2,-3 5,-6 5,-10 0,-7 -5,-12 -12,-12zm-82 29c5,-1 8,3 9,7 1,5 -2,9 -6,9 -11,2 -14,-14 -3,-16zm15 11c1,-9 -4,-15 -11,-16 -9,-1 -15,4 -16,11 -2,8 4,15 11,16 8,1 15,-5 16,-11zm42 -11c10,-2 12,15 3,17 -8,1 -12,-8 -8,-14 1,-2 2,-3 5,-3zm-13 10c1,5 3,7 6,9 9,7 24,0 22,-13 -1,-7 -8,-12 -16,-11 -8,1 -13,8 -12,15z"/>
  </g>
 </g>
</svg>
