<?xml version="1.0" encoding="UTF-8"?>
<!DOCTYPE svg PUBLIC "-//W3C//DTD SVG 1.1//EN" "http://www.w3.org/Graphics/SVG/1.1/DTD/svg11.dtd">
<!-- Creator: CorelDRAW X7 -->
<svg xmlns="http://www.w3.org/2000/svg" xml:space="preserve" width="1920px" height="1080px" version="1.1" style="shape-rendering:geometricPrecision; text-rendering:geometricPrecision; image-rendering:optimizeQuality; fill-rule:evenodd; clip-rule:evenodd"
viewBox="0 0 386 217"
 xmlns:xlink="http://www.w3.org/1999/xlink">
 <defs>
  <style type="text/css">
   <![CDATA[
    .fil1 {fill:#E3061F}
    .fil2 {fill:#F9B41C}
    .fil3 {fill:white}
    .fil0 {fill:url(#id0)}
   ]]>
  </style>
  <linearGradient id="id0" gradientUnits="userSpaceOnUse" x1="-0" y1="108.452" x2="385.608" y2="108.452">
   <stop offset="0" style="stop-opacity:1; stop-color:#FFD7DB"/>
   <stop offset="1" style="stop-opacity:1; stop-color:#FFF3D9"/>
  </linearGradient>
 </defs>
 <g id="Capa_x0020_1">
  <metadata id="CorelCorpID_0Corel-Layer"/>
  <g id="_1592080906064">
   <rect class="fil0" width="386" height="217"/>
   <g>
    <g>
     <path class="fil1" d="M137 23c21,0 41,8 56,21 -3,3 -5,5 -7,8l14 0c2,2 5,5 7,8l-28 0c-2,3 -4,6 -5,9l38 0c2,3 3,6 4,9l-46 0c-2,3 -2,5 -3,8l52 0c1,3 1,6 2,9l-56 0c-1,3 -1,6 -1,9l58 0c0,1 0,3 0,4 0,2 0,3 0,5l-58 0c0,2 0,5 1,8l56 0c-1,3 -1,6 -2,9l-52 0c0,3 1,6 2,8l47 0c-1,3 -2,6 -4,9l-39 0c2,3 3,6 5,9l29 0c-2,3 -4,6 -6,9l-16 0c2,2 5,5 8,7 -15,14 -35,22 -56,22 -47,0 -86,-39 -86,-86 0,-47 39,-85 86,-85z"/>
     <path class="fil2" d="M249 23c47,0 85,38 85,85 0,47 -38,86 -85,86 -22,0 -41,-8 -56,-22 0,0 -1,0 -1,0l0 0c-1,-1 -1,-1 -2,-2l0 0c0,0 0,0 0,-1l0 0c-1,0 -1,0 -1,0l0 0 0 0 0 0c-1,-1 -1,-1 -1,-1l0 0c0,0 -1,-1 -1,-1l0 0c0,0 -1,-1 -1,-2l0 0c-1,0 -1,0 -1,0l16 0c2,-3 4,-6 6,-9l-29 0c-2,-3 -3,-6 -5,-9l39 0c2,-3 3,-6 4,-9l-47 0c-1,-2 -2,-5 -2,-8l52 0c1,-3 1,-6 2,-9l-56 0c-1,-3 -1,-6 -1,-8l58 0c0,-2 0,-3 0,-5 0,-1 0,-3 0,-4l-58 0c0,-3 0,-6 1,-9l56 0c-1,-3 -1,-6 -2,-9l-52 0c1,-3 1,-5 3,-8l46 0c-1,-3 -2,-6 -4,-9l-38 0c1,-3 3,-6 5,-9l28 0c-2,-3 -5,-6 -7,-8l-14 0c0,-1 0,-1 0,-1l0 0c1,-1 1,-1 1,-1l0 0c0,0 1,-1 1,-1l0 0c0,0 0,0 1,-1l0 0c0,0 0,0 0,0 0,0 0,0 1,0 0,-1 0,-1 0,-1 0,0 0,0 0,0 1,0 1,-1 1,-1 0,0 0,0 0,0 0,0 0,0 1,0 0,-1 0,-1 0,-1 0,0 0,0 0,0 15,-14 35,-22 57,-22z"/>
    </g>
    <path class="fil3" d="M247 91l-1 8c-3,-1 -6,-2 -8,-2 -7,0 -11,6 -11,14 0,6 3,9 8,9 2,0 5,-1 7,-2l-1 8c-3,1 -6,2 -8,2 -10,0 -16,-7 -16,-16 0,-13 9,-23 20,-23 2,0 3,0 5,1l3 0c1,1 2,1 2,1l0 0zm-28 6l-1 0c-3,0 -5,1 -8,5l1 -5 -8 0 -5 30 9 0c3,-18 4,-22 8,-22l1 0c0,-3 2,-6 3,-8l0 0zm-52 29c-2,1 -4,1 -6,1 -5,0 -7,-2 -7,-6 0,-1 0,-2 0,-3l1 -3 0 -2 4 -21 9 0 -1 5 4 0 -1 7 -5 0 -2 13c0,0 0,1 0,1 0,1 1,2 3,2 1,0 2,0 2,0l-1 6 0 0zm-34 -20c0,4 2,7 7,9 3,1 4,2 4,3 0,2 -2,3 -5,3 -3,0 -5,-1 -8,-1l-2 6 1 1 1 0c1,0 2,0 3,0 2,0 4,0 5,0 9,0 14,-3 14,-10 0,-4 -2,-6 -7,-8 -4,-1 -4,-2 -4,-3 0,-2 2,-3 4,-3 2,0 5,1 7,1l1 -7c-2,0 -6,-1 -8,-1 -10,0 -13,5 -13,10l0 0zm183 21l-9 0 1 -3c-3,2 -5,3 -9,3 -6,0 -10,-5 -10,-12 0,-10 6,-19 14,-19 4,0 6,2 9,5l2 -11 8 0 -6 37 0 0zm-14 -7c5,0 7,-4 7,-10 0,-4 -1,-6 -4,-6 -4,0 -7,4 -7,10 0,4 1,6 4,6l0 0zm-107 6c-4,1 -6,1 -10,1 -10,0 -15,-4 -15,-13 0,-10 7,-18 16,-18 7,0 12,4 12,11 0,2 -1,4 -1,7l-18 0c0,1 0,1 0,1 0,4 3,6 8,6 3,0 6,-1 9,-2l-1 7zm-5 -18l0 -1c0,-3 -2,-4 -5,-4 -3,0 -5,2 -5,5l10 0zm-91 19l-9 0 5 -28 -11 28 -6 0 -1 -28 -6 28 -8 0 7 -37 13 0 0 23 9 -23 14 0 -7 37 0 0zm22 -14c-1,0 -1,0 -2,0 -5,0 -8,2 -8,5 0,2 2,3 4,3 3,0 6,-3 6,-8zm7 14l-8 0 0 -3c-2,2 -5,3 -9,3 -5,0 -8,-3 -8,-8 0,-7 5,-11 15,-11 1,0 3,0 4,0 0,-1 0,-1 0,-2 0,-2 -1,-3 -5,-3 -3,0 -6,1 -8,1l-1 0 -1 1 1 -7c5,-1 8,-2 11,-2 8,0 12,3 12,9 0,2 0,3 -1,6l-2 11 0 1 0 2 0 1 0 1 0 0zm134 -14c-1,0 -2,0 -2,0 -5,0 -8,2 -8,5 0,2 1,3 3,3 4,0 7,-3 7,-8l0 0zm6 14l-7 0 0 -3c-2,2 -5,3 -9,3 -5,0 -8,-3 -8,-8 0,-7 5,-11 15,-11 1,0 3,0 4,0 0,-1 0,-1 0,-2 0,-2 -1,-3 -5,-3 -3,0 -6,1 -8,1l-1 0 -1 1 1 -7c5,-1 8,-2 11,-2 8,0 12,3 12,9 0,2 0,3 -1,6l-2 11 0 1 -1 2 0 1 0 1 0 0zm24 -30l-1 0c-3,0 -4,1 -7,5l1 -5 -8 0 -6 30 9 0c3,-18 4,-22 9,-22l0 0c1,-3 2,-6 4,-8l-1 0 0 0z"/>
   </g>
  </g>
 </g>
</svg>
