<?xml version="1.0" encoding="UTF-8"?>
<!DOCTYPE svg PUBLIC "-//W3C//DTD SVG 1.1//EN" "http://www.w3.org/Graphics/SVG/1.1/DTD/svg11.dtd">
<!-- Creator: CorelDRAW X7 -->
<svg xmlns="http://www.w3.org/2000/svg" xml:space="preserve" width="1920px" height="1080px" version="1.1" style="shape-rendering:geometricPrecision; text-rendering:geometricPrecision; image-rendering:optimizeQuality; fill-rule:evenodd; clip-rule:evenodd"
viewBox="0 0 207 116"
 xmlns:xlink="http://www.w3.org/1999/xlink">
 <defs>
  <style type="text/css">
   <![CDATA[
    .fil0 {fill:#EC4348}
    .fil1 {fill:#FEFEFE}
   ]]>
  </style>
 </defs>
 <g id="Capa_x0020_1">
  <metadata id="CorelCorpID_0Corel-Layer"/>
  <g id="_1592080896720">
   <rect class="fil0" width="207" height="116"/>
   <path class="fil1" d="M15 40c0,4 0,7 4,9 4,1 19,0 24,0 4,1 4,6 1,7 -2,1 -17,1 -22,1 -1,0 -1,0 -2,1 -1,3 -1,7 -2,10 -3,12 -4,10 4,10 5,0 5,-3 7,-10 4,0 9,0 13,0 13,0 18,-13 14,-21 -4,-8 -10,-9 -17,-9l-19 0c-4,0 -5,0 -5,2zm107 12c2,-3 -3,-4 -4,-1 -1,3 3,4 4,1zm-1 4l-4 0 -2 12 4 0 2 -12zm43 -1c-3,-2 -8,-1 -9,2 -2,5 5,6 5,7 0,1 -1,1 -2,1 -1,0 -2,-1 -3,-2 -1,1 -2,3 -2,3 3,3 8,3 10,0 1,-2 1,-4 -1,-5 0,-1 -3,-2 -3,-3 1,-1 3,0 4,0l1 -3zm-76 4c0,-2 6,-3 5,0l-5 0zm-1 3c3,0 5,0 8,0 2,0 2,1 2,-1 1,-7 -6,-8 -10,-6 -3,2 -5,7 -2,11 2,3 7,3 10,0 0,0 -1,-1 -2,-2 -2,0 -5,2 -6,-2zm58 -4c4,-1 5,5 2,6 -2,1 -4,0 -4,-2 -1,-2 1,-3 2,-4zm8 5c3,-10 -11,-12 -14,-4 -4,10 11,12 14,4zm18 5c2,0 1,-1 2,-5 1,-4 9,-10 9,-13 -6,-1 -5,0 -9,5l-1 2c0,0 0,0 0,0 -1,-1 -1,-3 -1,-4 -1,-3 -1,-4 -6,-3 0,1 2,7 3,9 1,2 1,2 0,5 -1,5 -1,4 3,4zm13 -9c4,-2 4,4 1,5 -4,2 -5,-4 -1,-5zm6 9c0,-2 2,-12 2,-13l-3 0 -1 1c-2,-2 -9,-2 -11,5 -2,6 4,9 9,6 0,0 0,0 0,1 0,0 0,0 0,0l4 0zm-117 -15c2,0 6,0 6,3 -1,2 -4,2 -7,2l1 -5zm-1 9c2,0 6,0 8,-1 2,-2 3,-4 3,-7 0,-6 -8,-5 -13,-5 -1,1 -4,17 -4,18l0 1c1,0 3,0 4,-1 1,-1 1,-4 2,-5zm34 -4c4,-2 4,5 1,6 -4,2 -5,-4 -1,-6zm6 10c0,-2 4,-17 3,-19l-3 0c-1,2 -1,5 -2,7 -2,-1 -3,-3 -7,-1 -2,0 -4,2 -4,5 -2,8 6,10 9,7 0,0 0,0 0,0l0 1 4 0zm17 -10c4,-2 5,5 1,6 -4,2 -5,-4 -1,-6zm6 10c1,-3 4,-17 4,-19l-4 1c-1,1 -1,4 -1,6 -1,-1 -1,-1 -3,-2 -4,-1 -8,2 -9,6 -1,7 5,11 9,7 1,1 0,1 4,1z"/>
  </g>
 </g>
</svg>
