<?xml version="1.0" encoding="UTF-8"?>
<!DOCTYPE svg PUBLIC "-//W3C//DTD SVG 1.1//EN" "http://www.w3.org/Graphics/SVG/1.1/DTD/svg11.dtd">
<!-- Creator: CorelDRAW X7 -->
<svg xmlns="http://www.w3.org/2000/svg" xml:space="preserve" width="1920px" height="1080px" version="1.1" style="shape-rendering:geometricPrecision; text-rendering:geometricPrecision; image-rendering:optimizeQuality; fill-rule:evenodd; clip-rule:evenodd"
viewBox="0 0 269 151"
 xmlns:xlink="http://www.w3.org/1999/xlink">
 <defs>
  <style type="text/css">
   <![CDATA[
    .fil0 {fill:#D7FFF9}
    .fil3 {fill:#F978C5}
    .fil2 {fill:white}
    .fil1 {fill:url(#id0)}
   ]]>
  </style>
  <linearGradient id="id0" gradientUnits="userSpaceOnUse" x1="95.749" y1="114.087" x2="172.841" y2="36.9949">
   <stop offset="0" style="stop-opacity:1; stop-color:#0685F4"/>
   <stop offset="0.490196" style="stop-opacity:1; stop-color:#0EB1DE"/>
   <stop offset="0.0588235" style="stop-opacity:1; stop-color:#2789EE"/>
   <stop offset="0.54902" style="stop-opacity:1; stop-color:#36D8CB"/>
   <stop offset="1" style="stop-opacity:1; stop-color:#16DDC7"/>
  </linearGradient>
 </defs>
 <g id="Capa_x0020_1">
  <metadata id="CorelCorpID_0Corel-Layer"/>
  <g id="_1592080893648">
   <rect class="fil0" width="269" height="151"/>
   <g>
    <path class="fil1" d="M83 99c1,6 0,10 -1,14 -1,5 -1,9 2,12 8,9 16,-1 25,1 1,0 4,0 5,1 7,2 11,3 16,4l7 0c2,0 3,-1 5,-1 2,0 8,-1 10,-2 2,-1 6,-3 8,-4l7 -4c5,-3 8,-7 11,-11 7,-9 11,-19 11,-29l0 -8c0,-11 -4,-21 -11,-30 -1,-1 -1,-2 -2,-2 -4,-6 -12,-12 -19,-15 -7,-3 -13,-4 -20,-5l-5 0c-4,1 -9,1 -13,3 -4,1 -7,2 -11,4 -5,3 -13,9 -16,14 -2,1 -5,6 -6,8 -1,2 -4,8 -4,10l-1 2c-1,4 -2,7 -2,10l0 7c1,6 2,11 3,16l1 5z"/>
    <g>
     <path class="fil2" d="M103 77c-1,-12 11,-13 12,-3 1,5 -1,10 -4,11 -5,1 -8,-4 -8,-8zm60 -14c-4,1 -3,2 -8,1 -7,-1 -5,5 -5,12 0,9 -1,13 4,13 4,-1 3,-3 3,-6 0,-5 -1,-14 2,-16 3,-1 6,1 6,3 1,2 0,15 0,17 1,2 6,2 7,1 0,-1 0,-14 0,-17 0,-6 -4,-9 -9,-8zm-25 25l7 0 0 -24 -7 0 0 24zm-5 0l0 -34 -6 0 0 34 6 0zm-37 -23c0,6 0,29 1,32 0,2 3,3 5,2 2,-1 1,-4 1,-7 1,-6 0,-3 11,-4 2,0 7,-2 8,-8 2,-9 -3,-20 -14,-17 -3,1 -3,2 -6,1 -4,-1 -5,0 -6,1z"/>
     <circle class="fil3" cx="142" cy="58" r="3"/>
    </g>
   </g>
  </g>
 </g>
</svg>
