<?xml version="1.0" encoding="UTF-8"?>
<!DOCTYPE svg PUBLIC "-//W3C//DTD SVG 1.1//EN" "http://www.w3.org/Graphics/SVG/1.1/DTD/svg11.dtd">
<!-- Creator: CorelDRAW X7 -->
<svg xmlns="http://www.w3.org/2000/svg" xml:space="preserve" width="1920px" height="1080px" version="1.1" style="shape-rendering:geometricPrecision; text-rendering:geometricPrecision; image-rendering:optimizeQuality; fill-rule:evenodd; clip-rule:evenodd"
viewBox="0 0 673 379"
 xmlns:xlink="http://www.w3.org/1999/xlink">
 <defs>
  <style type="text/css">
   <![CDATA[
    .str0 {stroke:white;stroke-width:0.0757234}
    .fil3 {fill:black}
    .fil5 {fill:#F8E67C}
    .fil4 {fill:#FAE97D}
    .fil1 {fill:#FBD78D}
    .fil2 {fill:#FCEB7E}
    .fil0 {fill:#FFEDCB}
   ]]>
  </style>
 </defs>
 <g id="Capa_x0020_1">
  <metadata id="CorelCorpID_0Corel-Layer"/>
  <g id="_1592077498752">
   <rect class="fil0 str0" width="673" height="379"/>
   <g>
    <g>
     <path class="fil1" d="M228 268c-3,13 -23,10 -21,-4 1,-5 6,-10 13,-8 5,0 9,6 8,12zm-57 -52c-2,8 -11,10 -16,6 -1,-1 -2,-2 -4,-1 -2,1 2,5 3,6 8,7 17,14 17,24 2,20 -19,32 -34,22 -15,-9 -5,-24 6,-21 2,1 5,4 7,3 2,-2 -2,-5 -3,-6 -2,-2 -4,-4 -6,-5 -6,-6 -11,-10 -11,-20 -2,-12 7,-22 17,-24 13,-3 27,6 24,16zm43 -3c-4,15 -9,29 -14,44 -2,8 -3,16 -10,19 -8,3 -16,-5 -13,-13 3,-13 9,-30 13,-44 1,-4 3,-7 4,-11 5,-16 24,-8 20,5zm-99 0l0 50c0,2 2,3 4,5l31 31c1,1 2,2 4,2l50 0c2,0 3,-2 5,-4l31 -31c1,-1 2,-1 2,-3l0 -50c0,-2 -2,-4 -4,-6l-31 -31c-1,-1 -1,-2 -3,-2l-51 0c-1,0 -3,3 -5,4l-28 29c-2,2 -5,4 -5,6z"/>
     <path class="fil2" d="M150 168c1,-1 44,-1 52,-1 4,0 6,0 8,2 5,5 39,38 39,40 1,1 0,44 0,52 0,7 1,6 -5,12 -4,4 -34,34 -36,35 -2,1 -31,0 -35,0 -6,0 -12,0 -18,0 -3,0 -5,1 -7,-1 -6,-5 -39,-38 -39,-40 -1,-2 -1,-45 -1,-53 0,-3 0,-5 2,-7 5,-5 38,-39 40,-39zm-23 1c-2,2 -4,3 -7,5 3,5 -1,8 -5,5 -2,3 -3,5 -5,7 2,3 2,3 -1,7 -3,5 -7,14 -9,20 -9,27 -3,55 15,77 15,20 41,32 68,30 56,-2 94,-60 73,-112 -8,-20 -20,-32 -37,-43 -8,-4 -20,-8 -30,-9 -19,-3 -34,1 -49,9 -10,5 -8,7 -13,4z"/>
     <path class="fil3" d="M127 169c5,3 3,1 13,-4 15,-8 30,-12 49,-9 10,1 22,5 30,9 17,11 29,23 37,43 21,52 -17,110 -73,112 -27,2 -53,-10 -68,-30 -18,-22 -24,-50 -15,-77 2,-6 6,-15 9,-20 3,-4 3,-4 1,-7 -4,-1 -4,-1 -7,3 -2,4 -5,10 -7,14 -4,10 -6,20 -7,30l0 10c1,8 2,16 5,23 3,12 11,25 20,34 1,1 1,1 2,2 12,12 30,21 46,24 3,1 6,1 10,1 0,0 1,1 1,1l11 0c6,-1 13,-2 17,-3 6,-1 12,-4 16,-6 6,-3 8,-4 14,-8 9,-6 20,-18 25,-28 5,-8 7,-12 10,-22 1,-6 2,-12 3,-18l0 -9c-1,-4 -1,-8 -2,-12 -2,-15 -10,-32 -21,-44 -4,-4 -3,-3 -8,-7 -5,-5 -9,-8 -15,-12 -12,-7 -27,-10 -41,-11l-7 0c-8,0 -16,2 -23,4 -8,3 -12,4 -19,8 -1,1 -2,2 -3,2 -4,3 -4,3 -3,7z"/>
     <path class="fil3" d="M115 213c0,-2 3,-4 5,-6l28 -29c2,-1 4,-4 5,-4l51 0c2,0 2,1 3,2l31 31c2,2 4,4 4,6l0 50c0,2 -1,2 -2,3l-31 31c-2,2 -3,4 -5,4l-50 0c-2,0 -3,-1 -4,-2l-31 -31c-2,-2 -4,-3 -4,-5l0 -50zm35 -45c-2,0 -35,34 -40,39 -2,2 -2,4 -2,7 0,8 0,51 1,53 0,2 33,35 39,40 2,2 4,1 7,1 6,0 12,0 18,0 4,0 33,1 35,0 2,-1 32,-31 36,-35 6,-6 5,-5 5,-12 0,-8 1,-51 0,-52 0,-2 -34,-35 -39,-40 -2,-2 -4,-2 -8,-2 -8,0 -51,0 -52,1z"/>
     <path class="fil3" d="M150 206c11,-1 18,8 13,11 -3,1 -5,-2 -6,-3 -5,-2 -10,0 -12,4 -3,5 0,9 3,12 4,4 14,13 16,19 5,16 -15,27 -26,16 -2,-2 -2,-5 0,-6 3,-1 5,1 6,2 7,4 16,-2 13,-10 -2,-6 -17,-16 -20,-24 -3,-11 4,-19 13,-21zm21 10c3,-10 -11,-19 -24,-16 -10,2 -19,12 -17,24 0,10 5,14 11,20 2,1 4,3 6,5 1,1 5,4 3,6 -2,1 -5,-2 -7,-3 -11,-3 -21,12 -6,21 15,10 36,-2 34,-22 0,-10 -9,-17 -17,-24 -1,-1 -5,-5 -3,-6 2,-1 3,0 4,1 5,4 14,2 16,-6z"/>
     <path class="fil3" d="M203 206c2,0 3,1 4,2 1,1 1,3 0,4 -1,3 -2,6 -3,9l-13 41c0,3 -1,7 -4,7 -4,1 -4,-3 -3,-6l15 -49c1,-3 2,-7 4,-8zm11 7c4,-13 -15,-21 -20,-5 -1,4 -3,7 -4,11 -4,14 -10,31 -13,44 -3,8 5,16 13,13 7,-3 8,-11 10,-19 5,-15 10,-29 14,-44z"/>
     <path class="fil2" d="M150 206c-9,2 -16,10 -13,21 3,8 18,18 20,24 3,8 -6,14 -13,10 -1,-1 -3,-3 -6,-2 -2,1 -2,4 0,6 11,11 31,0 26,-16 -2,-6 -12,-15 -16,-19 -3,-3 -6,-7 -3,-12 2,-4 7,-6 12,-4 1,1 3,4 6,3 5,-3 -2,-12 -13,-11z"/>
     <path class="fil4" d="M203 206c-2,1 -3,5 -4,8l-15 49c-1,3 -1,7 3,6 3,0 4,-4 4,-7l13 -41c1,-3 2,-6 3,-9 1,-1 1,-3 0,-4 -1,-1 -2,-2 -4,-2z"/>
     <path class="fil3" d="M216 263c5,-2 7,5 3,6 -2,1 -4,0 -5,-2 0,-1 0,-2 0,-3 1,-1 2,-1 2,-1zm12 5c1,-6 -3,-12 -8,-12 -7,-2 -12,3 -13,8 -2,14 18,17 21,4z"/>
     <path class="fil3" d="M115 179c4,3 8,0 5,-5 -3,-3 -8,2 -5,5z"/>
     <path class="fil5" d="M216 263c0,0 -1,0 -2,1 0,1 0,2 0,3 1,2 3,3 5,2 4,-1 2,-8 -3,-6z"/>
    </g>
    <g>
     <path class="fil1" d="M333 171c-2,14 -23,10 -20,-4 0,-5 5,-9 12,-8 5,1 9,6 8,12zm-57 -52c-2,8 -11,10 -16,6 -1,-1 -2,-2 -4,-1 -2,2 3,5 3,6 8,7 17,14 18,25 1,19 -20,31 -35,21 -15,-9 -5,-24 6,-21 3,1 5,4 7,3 3,-2 -2,-5 -3,-6 -2,-2 -3,-3 -5,-5 -6,-6 -12,-10 -12,-20 -1,-12 7,-22 17,-24 13,-3 27,6 24,16zm43 -3c-4,15 -9,29 -13,44 -3,8 -4,16 -10,19 -9,3 -17,-5 -14,-13 3,-13 9,-30 14,-44 1,-4 2,-7 3,-11 5,-16 24,-8 20,5zm-99 0l0 50c0,2 3,3 5,6l31 31c1,1 1,2 3,2l50 0c2,0 4,-3 6,-5l31 -31c1,-1 2,-1 2,-3l0 -50c0,-2 -2,-3 -5,-6l-31 -31c-1,-1 -1,-2 -3,-2l-50 0c-2,0 -4,3 -6,5l-28 28c-2,2 -5,4 -5,6z"/>
     <path class="fil2" d="M255 71c1,-1 45,-1 52,-1 4,0 6,0 8,2 5,5 39,38 39,40 1,1 1,45 1,53 0,7 0,5 -6,11 -4,4 -34,35 -36,35 -2,1 -30,1 -35,1 -6,0 -12,0 -17,0 -4,0 -6,0 -8,-2 -5,-5 -39,-38 -39,-40 -1,-1 -1,-45 -1,-52 0,-4 0,-6 2,-8 5,-5 38,-39 40,-39zm-23 1c-2,2 -4,3 -6,6 2,4 -1,7 -5,5 -3,2 -4,4 -6,6 2,4 2,3 0,7 -4,6 -8,14 -10,20 -9,27 -2,55 15,77 16,20 42,32 68,31 56,-3 94,-61 73,-113 -8,-20 -20,-32 -37,-42 -8,-5 -20,-9 -30,-10 -18,-2 -33,1 -49,9 -10,5 -7,7 -13,4z"/>
     <path class="fil3" d="M232 72c6,3 3,1 13,-4 16,-8 31,-11 49,-9 10,1 22,5 30,10 17,10 29,22 37,42 21,52 -17,110 -73,113 -26,1 -52,-11 -68,-31 -17,-22 -24,-50 -15,-77 2,-6 6,-14 10,-20 2,-4 2,-3 0,-7 -4,-1 -4,-1 -6,3 -3,4 -6,10 -8,14 -4,10 -6,20 -7,30l0 11c1,7 2,15 5,22 4,12 11,25 20,34 1,1 2,2 3,3 11,11 29,21 46,23 3,1 6,1 9,2 1,0 1,0 1,0l11 0c6,-1 13,-2 17,-3 6,-1 12,-3 16,-6 7,-3 8,-4 14,-7 9,-7 20,-19 25,-28 5,-9 7,-13 10,-23 2,-6 2,-12 3,-18l0 -9c0,-4 -1,-8 -2,-12 -2,-15 -10,-32 -21,-43 -4,-5 -3,-4 -7,-8 -6,-5 -10,-8 -16,-11 -12,-7 -27,-11 -41,-12l-7 0c-8,1 -16,2 -23,4 -7,3 -12,5 -18,8 -2,1 -3,2 -4,3 -4,2 -4,2 -3,6z"/>
     <path class="fil3" d="M220 116c0,-2 3,-4 5,-6l28 -28c2,-2 4,-5 6,-5l50 0c2,0 2,1 3,2l31 31c3,3 5,4 5,6l0 50c0,2 -1,2 -2,3l-31 31c-2,2 -4,5 -6,5l-50 0c-2,0 -2,-1 -3,-2l-31 -31c-2,-3 -5,-4 -5,-6l0 -50zm35 -45c-2,0 -35,34 -40,39 -2,2 -2,4 -2,8 0,7 0,51 1,52 0,2 34,35 39,40 2,2 4,2 8,2 5,0 11,0 17,0 5,0 33,0 35,-1 2,0 32,-31 36,-35 6,-6 6,-4 6,-11 0,-8 0,-52 -1,-53 0,-2 -34,-35 -39,-40 -2,-2 -4,-2 -8,-2 -7,0 -51,0 -52,1z"/>
     <path class="fil3" d="M256 110c10,-2 18,7 12,10 -3,1 -4,-1 -6,-2 -5,-3 -10,0 -12,3 -3,5 0,9 3,12 4,4 14,13 16,19 5,16 -15,27 -26,16 -2,-2 -2,-4 0,-6 3,-1 5,1 6,2 7,4 16,-2 13,-10 -1,-6 -17,-16 -20,-24 -3,-10 5,-19 14,-20zm20 9c3,-10 -11,-19 -24,-16 -10,2 -18,12 -17,24 0,10 6,14 12,20 2,2 3,3 5,5 1,1 6,4 3,6 -2,1 -4,-2 -7,-3 -11,-3 -21,12 -6,21 15,10 36,-2 35,-21 -1,-11 -10,-18 -18,-25 0,-1 -5,-4 -3,-6 2,-1 3,0 4,1 5,4 14,2 16,-6z"/>
     <path class="fil3" d="M308 110c2,-1 4,0 4,1 1,2 1,3 0,5 -1,2 -1,5 -2,8l-13 41c-1,3 -2,7 -4,7 -4,1 -5,-2 -4,-5l16 -50c0,-3 1,-7 3,-7zm11 6c4,-13 -15,-21 -20,-5 -1,4 -2,7 -3,11 -5,14 -11,31 -14,44 -3,8 5,16 14,13 6,-3 7,-11 10,-19 4,-15 9,-29 13,-44z"/>
     <path class="fil2" d="M256 110c-9,1 -17,10 -14,20 3,8 19,18 20,24 3,8 -6,14 -13,10 -1,-1 -3,-3 -6,-2 -2,2 -2,4 0,6 11,11 31,0 26,-16 -2,-6 -12,-15 -16,-19 -3,-3 -6,-7 -3,-12 2,-3 7,-6 12,-3 2,1 3,3 6,2 6,-3 -2,-12 -12,-10z"/>
     <path class="fil4" d="M308 110c-2,0 -3,4 -3,7l-16 50c-1,3 0,6 4,5 2,0 3,-4 4,-7l13 -41c1,-3 1,-6 2,-8 1,-2 1,-3 0,-5 0,-1 -2,-2 -4,-1z"/>
     <path class="fil3" d="M322 166c4,-2 6,5 2,6 -2,1 -4,0 -4,-1 -1,-2 -1,-2 0,-3 0,-2 1,-2 2,-2zm11 5c1,-6 -3,-11 -8,-12 -7,-1 -12,3 -12,8 -3,14 18,18 20,4z"/>
     <path class="fil3" d="M221 83c4,2 7,-1 5,-5 -4,-4 -9,1 -5,5z"/>
     <path class="fil5" d="M322 166c-1,0 -2,0 -2,2 -1,1 -1,1 0,3 0,1 2,2 4,1 4,-1 2,-8 -2,-6z"/>
    </g>
    <g>
     <path class="fil1" d="M438 267c-2,14 -23,11 -20,-3 1,-5 6,-10 12,-9 5,1 9,6 8,12zm-56 -51c-3,8 -12,10 -17,6 -1,-1 -2,-3 -3,-1 -3,1 2,5 3,5 7,8 16,14 17,25 2,19 -19,32 -35,22 -14,-9 -5,-24 6,-21 3,1 6,4 7,3 3,-2 -2,-5 -3,-6 -2,-2 -3,-4 -5,-6 -6,-6 -11,-10 -12,-19 -1,-12 8,-22 18,-24 12,-3 27,6 24,16zm43 -3c-5,15 -10,29 -14,44 -3,8 -4,16 -10,19 -8,3 -16,-5 -14,-13 4,-14 10,-30 14,-44 1,-4 2,-8 3,-11 5,-16 24,-8 21,5zm-99 -1l0 51c0,2 2,3 4,5l31 31c1,1 1,2 3,2l50 0c2,0 4,-2 6,-4l31 -31c1,-1 2,-1 2,-3l0 -51c0,-1 -2,-3 -4,-5l-31 -31c-1,-1 -2,-2 -4,-2l-50 0c-2,0 -4,2 -5,4l-29 29c-2,2 -4,4 -4,5z"/>
     <path class="fil2" d="M360 167c2,0 45,0 53,0 3,0 5,0 7,2 6,5 39,38 39,39 1,2 1,45 1,53 0,7 0,6 -6,12 -4,4 -34,34 -36,35 -1,1 -30,0 -35,0 -6,0 -11,0 -17,0 -4,0 -6,1 -8,-1 -5,-6 -39,-39 -39,-40 -1,-2 0,-45 0,-53 0,-3 -1,-5 1,-7 5,-5 38,-39 40,-40zm-23 2c-2,2 -4,3 -6,5 2,5 -1,7 -5,5 -3,3 -4,5 -6,7 2,3 2,3 0,7 -4,5 -8,13 -10,20 -8,27 -2,55 15,77 16,20 42,31 68,30 57,-2 94,-61 73,-113 -8,-19 -19,-31 -37,-42 -8,-4 -19,-8 -30,-9 -18,-3 -33,1 -49,9 -9,4 -7,7 -13,4z"/>
     <path class="fil3" d="M337 169c6,3 4,0 13,-4 16,-8 31,-12 49,-9 11,1 22,5 30,9 18,11 29,23 37,42 21,52 -16,111 -73,113 -26,1 -52,-10 -68,-30 -17,-22 -23,-50 -15,-77 2,-7 6,-15 10,-20 2,-4 2,-4 0,-7 -3,-1 -4,-1 -6,3 -3,4 -6,9 -8,14 -4,10 -6,20 -7,30l0 10c1,8 2,15 5,23 4,12 11,25 20,34 1,1 2,1 3,2 11,12 29,21 46,24 3,1 6,1 9,1 1,0 1,0 1,0l11 0c6,0 13,-1 18,-2 5,-2 11,-4 15,-6 7,-3 8,-4 14,-8 9,-6 21,-18 26,-28 4,-8 6,-13 9,-23 2,-6 3,-11 3,-17l0 -9c0,-4 -1,-8 -1,-12 -3,-15 -11,-32 -21,-44 -5,-4 -4,-3 -8,-8 -6,-4 -10,-7 -16,-11 -12,-7 -26,-11 -41,-11l-6 0c-9,0 -16,2 -24,4 -7,2 -11,4 -18,8 -1,1 -2,1 -4,2 -3,3 -4,3 -3,7z"/>
     <path class="fil3" d="M326 212c0,-1 2,-3 4,-5l29 -29c1,-2 3,-4 5,-4l50 0c2,0 3,1 4,2l31 31c2,2 4,4 4,5l0 51c0,2 -1,2 -2,3l-31 31c-2,2 -4,4 -6,4l-50 0c-2,0 -2,-1 -3,-2l-31 -31c-2,-2 -4,-3 -4,-5l0 -51zm34 -45c-2,1 -35,35 -40,40 -2,2 -1,4 -1,7 0,8 -1,51 0,53 0,1 34,34 39,40 2,2 4,1 8,1 6,0 11,0 17,0 5,0 34,1 35,0 2,-1 32,-31 36,-35 6,-6 6,-5 6,-12 0,-8 0,-51 -1,-53 0,-1 -33,-34 -39,-39 -2,-2 -4,-2 -7,-2 -8,0 -51,0 -53,0z"/>
     <path class="fil3" d="M361 206c10,-1 18,8 12,10 -3,2 -4,-1 -6,-2 -5,-3 -10,0 -12,4 -3,5 0,9 3,12 4,4 14,13 16,18 5,17 -15,28 -26,17 -2,-2 -1,-5 1,-6 2,-2 4,1 6,2 6,4 15,-3 12,-10 -1,-6 -17,-16 -19,-24 -4,-11 4,-19 13,-21zm21 10c3,-10 -12,-19 -24,-16 -10,2 -19,12 -18,24 1,9 6,13 12,19 2,2 3,4 5,6 1,1 6,4 3,6 -1,1 -4,-2 -7,-3 -11,-3 -20,12 -6,21 16,10 37,-3 35,-22 -1,-11 -10,-17 -17,-25 -1,0 -6,-4 -3,-5 1,-2 2,0 3,1 5,4 14,2 17,-6z"/>
     <path class="fil3" d="M414 206c1,0 3,1 3,2 1,1 1,3 0,4 -1,3 -1,6 -2,9l-13 41c-1,3 -1,6 -4,7 -4,1 -5,-3 -4,-6l16 -50c1,-3 1,-6 4,-7zm11 7c3,-13 -16,-21 -21,-5 -1,3 -2,7 -3,11 -4,14 -10,30 -14,44 -2,8 6,16 14,13 6,-3 7,-11 10,-19 4,-15 9,-29 14,-44z"/>
     <path class="fil2" d="M361 206c-9,2 -17,10 -13,21 2,8 18,18 19,24 3,7 -6,14 -12,10 -2,-1 -4,-4 -6,-2 -2,1 -3,4 -1,6 11,11 31,0 26,-17 -2,-5 -12,-14 -16,-18 -3,-3 -6,-7 -3,-12 2,-4 7,-7 12,-4 2,1 3,4 6,2 6,-2 -2,-11 -12,-10z"/>
     <path class="fil4" d="M414 206c-3,1 -3,4 -4,7l-16 50c-1,3 0,7 4,6 3,-1 3,-4 4,-7l13 -41c1,-3 1,-6 2,-9 1,-1 1,-3 0,-4 0,-1 -2,-2 -3,-2z"/>
     <path class="fil3" d="M427 263c4,-2 6,4 3,6 -3,1 -4,0 -5,-2 -1,-1 -1,-2 0,-3 0,-1 1,-1 2,-1zm11 4c1,-6 -3,-11 -8,-12 -6,-1 -11,4 -12,9 -3,14 18,17 20,3z"/>
     <path class="fil3" d="M326 179c4,2 7,0 5,-5 -4,-3 -9,2 -5,5z"/>
     <path class="fil5" d="M427 263c-1,0 -2,0 -2,1 -1,1 -1,2 0,3 1,2 2,3 5,2 3,-2 1,-8 -3,-6z"/>
    </g>
    <g>
     <path class="fil1" d="M544 171c-3,13 -24,10 -21,-4 1,-5 6,-10 12,-8 5,1 10,6 9,12zm-57 -52c-3,8 -12,10 -17,6 -1,-1 -2,-2 -3,-1 -2,2 2,5 3,6 7,7 16,14 17,25 2,19 -19,31 -35,21 -14,-9 -4,-24 6,-21 3,1 6,4 7,3 3,-2 -2,-5 -3,-6 -1,-2 -3,-4 -5,-5 -6,-6 -11,-10 -12,-20 -1,-12 8,-22 18,-24 13,-3 27,6 24,16zm43 -3c-4,15 -10,29 -14,44 -2,8 -4,16 -10,19 -8,3 -16,-5 -14,-13 4,-13 10,-30 14,-44 1,-4 2,-7 3,-11 5,-16 24,-8 21,5zm-99 0l0 50c0,2 2,3 4,5l31 31c1,1 1,2 3,2l51 0c1,0 3,-2 5,-4l31 -31c1,-1 2,-1 2,-3l0 -50c0,-2 -2,-3 -4,-6l-31 -31c-1,-1 -2,-2 -3,-2l-51 0c-2,0 -3,3 -5,5l-29 28c-2,2 -4,4 -4,6z"/>
     <path class="fil2" d="M465 71c2,-1 45,-1 53,-1 3,0 5,0 7,2 6,5 39,38 40,40 0,1 0,44 0,52 0,7 0,6 -6,12 -4,4 -34,34 -35,35 -2,1 -31,0 -36,0 -5,0 -11,0 -17,0 -4,0 -5,1 -8,-1 -5,-5 -38,-38 -39,-40 -1,-2 0,-45 0,-53 0,-3 -1,-5 1,-7 5,-5 39,-39 40,-39zm-23 1c-2,2 -4,3 -6,5 2,5 -1,8 -5,6 -2,2 -4,4 -6,6 2,3 2,3 0,7 -4,5 -8,14 -10,20 -8,27 -2,55 15,77 16,20 42,32 68,31 57,-3 94,-61 73,-113 -7,-20 -19,-32 -37,-43 -7,-4 -19,-8 -30,-9 -18,-2 -33,1 -49,9 -9,5 -7,7 -13,4z"/>
     <path class="fil3" d="M442 72c6,3 4,1 13,-4 16,-8 31,-11 49,-9 11,1 23,5 30,9 18,11 30,23 37,43 21,52 -16,110 -73,113 -26,1 -52,-11 -68,-31 -17,-22 -23,-50 -15,-77 2,-6 6,-15 10,-20 2,-4 2,-4 0,-7 -3,-1 -3,-1 -6,3 -3,4 -6,10 -7,14 -4,10 -7,20 -7,30l0 10c0,8 2,16 4,23 4,12 12,25 20,34 1,1 2,1 3,2 11,12 29,21 46,24 3,1 6,1 10,1 0,1 0,1 1,1l10 0c7,-1 13,-2 18,-3 5,-1 11,-4 16,-6 6,-3 7,-4 13,-8 9,-6 21,-18 26,-28 4,-8 7,-12 9,-22 2,-6 3,-12 3,-18l0 -9c0,-4 -1,-8 -1,-12 -3,-15 -11,-32 -21,-43 -5,-5 -3,-4 -8,-8 -5,-5 -9,-8 -16,-12 -12,-7 -26,-10 -41,-11l-6 0c-8,0 -16,2 -23,4 -8,3 -12,5 -19,8 -1,1 -2,2 -3,2 -4,3 -4,3 -4,7z"/>
     <path class="fil3" d="M431 116c0,-2 2,-4 4,-6l29 -28c2,-2 3,-5 5,-5l51 0c1,0 2,1 3,2l31 31c2,3 4,4 4,6l0 50c0,2 -1,2 -2,3l-31 31c-2,2 -4,4 -5,4l-51 0c-2,0 -2,-1 -3,-2l-31 -31c-2,-2 -4,-3 -4,-5l0 -50zm34 -45c-1,0 -35,34 -40,39 -2,2 -1,4 -1,7 0,8 -1,51 0,53 1,2 34,35 39,40 3,2 4,1 8,1 6,0 12,0 17,0 5,0 34,1 36,0 1,-1 31,-31 35,-35 6,-6 6,-5 6,-12 0,-8 0,-51 0,-52 -1,-2 -34,-35 -40,-40 -2,-2 -4,-2 -7,-2 -8,0 -51,0 -53,1z"/>
     <path class="fil3" d="M466 109c10,-1 18,8 12,11 -3,1 -4,-2 -6,-3 -5,-2 -10,0 -12,4 -3,5 0,9 3,12 4,4 15,13 16,19 5,16 -14,27 -26,16 -2,-2 -1,-4 1,-6 3,-1 4,1 6,2 7,4 15,-2 13,-10 -2,-6 -18,-16 -20,-24 -3,-11 4,-19 13,-21zm21 10c3,-10 -11,-19 -24,-16 -10,2 -19,12 -18,24 1,10 6,14 12,20 2,1 4,3 5,5 1,1 6,4 3,6 -1,1 -4,-2 -7,-3 -10,-3 -20,12 -6,21 16,10 37,-2 35,-21 -1,-11 -10,-18 -17,-25 -1,-1 -5,-4 -3,-6 1,-1 2,0 3,1 5,4 14,2 17,-6z"/>
     <path class="fil3" d="M519 109c1,0 3,1 4,2 1,1 0,3 0,4 -1,3 -2,6 -3,9l-13 41c-1,3 -1,7 -4,7 -4,1 -5,-3 -4,-6l16 -49c1,-3 1,-7 4,-8zm11 7c3,-13 -16,-21 -21,-5 -1,4 -2,7 -3,11 -4,14 -10,31 -14,44 -2,8 6,16 14,13 6,-3 8,-11 10,-19 4,-15 10,-29 14,-44z"/>
     <path class="fil2" d="M466 109c-9,2 -16,10 -13,21 2,8 18,18 20,24 2,8 -6,14 -13,10 -2,-1 -3,-3 -6,-2 -2,2 -3,4 -1,6 12,11 31,0 26,-16 -1,-6 -12,-15 -16,-19 -3,-3 -6,-7 -3,-12 2,-4 7,-6 12,-4 2,1 3,4 6,3 6,-3 -2,-12 -12,-11z"/>
     <path class="fil4" d="M519 109c-3,1 -3,5 -4,8l-16 49c-1,3 0,7 4,6 3,0 3,-4 4,-7l13 -41c1,-3 2,-6 3,-9 0,-1 1,-3 0,-4 -1,-1 -3,-2 -4,-2z"/>
     <path class="fil3" d="M532 166c4,-2 6,5 3,6 -2,1 -4,0 -5,-2 0,-1 0,-1 0,-3 1,-1 1,-1 2,-1zm12 5c1,-6 -4,-11 -9,-12 -6,-2 -11,3 -12,8 -3,14 18,17 21,4z"/>
     <path class="fil3" d="M431 83c4,2 7,-1 5,-6 -4,-3 -9,2 -5,6z"/>
     <path class="fil5" d="M532 166c-1,0 -1,0 -2,1 0,2 0,2 0,3 1,2 3,3 5,2 3,-1 1,-8 -3,-6z"/>
    </g>
   </g>
  </g>
 </g>
</svg>
