<?xml version="1.0" encoding="UTF-8"?>
<!DOCTYPE svg PUBLIC "-//W3C//DTD SVG 1.1//EN" "http://www.w3.org/Graphics/SVG/1.1/DTD/svg11.dtd">
<!-- Creator: CorelDRAW X7 -->
<svg xmlns="http://www.w3.org/2000/svg" xml:space="preserve" width="1920px" height="1080px" version="1.1" style="shape-rendering:geometricPrecision; text-rendering:geometricPrecision; image-rendering:optimizeQuality; fill-rule:evenodd; clip-rule:evenodd"
viewBox="0 0 269 152"
 xmlns:xlink="http://www.w3.org/1999/xlink">
 <defs>
  <style type="text/css">
   <![CDATA[
    .fil2 {fill:#23102A}
    .fil5 {fill:#465099}
    .fil3 {fill:#B8B9C0}
    .fil1 {fill:#F50040}
    .fil0 {fill:#FFDFF0}
    .fil4 {fill:url(#id0)}
   ]]>
  </style>
  <linearGradient id="id0" gradientUnits="userSpaceOnUse" x1="177" y1="67.2766" x2="223.644" y2="67.2766">
   <stop offset="0" style="stop-opacity:1; stop-color:#FA0086"/>
   <stop offset="1" style="stop-opacity:1; stop-color:#F50040"/>
  </linearGradient>
 </defs>
 <g id="Capa_x0020_1">
  <metadata id="CorelCorpID_0Corel-Layer"/>
  <g id="_1592080898640">
   <rect class="fil0" width="269" height="152"/>
   <g>
    <path class="fil1" d="M126 86c1,1 1,2 2,3l5 5c2,2 5,-1 3,-3 -1,-2 -6,-7 -7,-8l5 -5c1,-1 3,-2 3,-3 0,-2 -1,-3 -3,-3 -1,0 -2,1 -3,2 -1,1 -7,7 -8,8 0,-3 0,-6 0,-9 0,-2 1,-7 0,-8 -1,-1 -2,-1 -3,-1 -1,1 -1,2 -1,3 0,4 -1,25 0,26 1,3 4,2 4,0 1,-2 0,-4 1,-5 0,0 2,-2 2,-2zm19 -22c-3,1 -2,7 1,6 3,-1 2,-7 -1,-6zm0 9c-2,0 -2,3 -2,5l0 13c0,2 1,4 3,4 2,-1 2,-3 2,-5l0 -14c0,-2 -1,-4 -3,-3zm-96 0c0,0 -3,-1 -3,2 0,1 0,2 1,2 1,1 1,1 2,1 0,2 0,5 0,8 0,2 0,5 1,7 3,3 8,2 7,-1 -1,-2 -2,-2 -3,-2l0 -12c1,0 2,0 3,-1 0,0 1,-1 1,-2 0,-2 -2,-2 -4,-2 0,-2 0,-4 0,-6 0,-4 -3,-3 -4,-2 -1,1 -1,6 -1,8zm18 0c-2,1 -2,3 -2,5 0,7 -1,14 6,16 5,2 8,0 11,-3 2,-3 2,-7 2,-12 0,-2 0,-5 -2,-6 0,0 -2,0 -2,0 -1,1 -1,2 -1,3 0,3 0,5 0,7 0,3 0,5 -2,6 -1,1 -4,2 -5,0 -2,-1 -2,-2 -2,-5 0,-2 0,-5 0,-7 0,-1 0,-2 -1,-3 0,-1 -1,-1 -2,-1zm29 1c-1,-2 -4,-2 -4,0 -1,1 0,13 0,15 0,3 -1,5 1,6 4,0 3,-3 3,-4 0,-3 0,-5 0,-8 0,-7 6,-6 8,-4 2,2 1,4 1,6 0,2 0,5 0,8 0,2 3,3 4,1 1,-1 1,-5 1,-7 0,-4 0,-7 -1,-10 -1,-2 -4,-4 -7,-4 -3,-1 -4,0 -6,1z"/>
    <g>
     <circle class="fil2" cx="191" cy="43" r="26"/>
     <path class="fil2" d="M184 96c0,9 -4,17 -9,23 -1,2 -1,3 -3,4 -1,2 -4,3 -6,5l0 1c1,-1 4,0 5,-1 17,-1 34,-5 44,-20 3,-3 6,-10 7,-16 -1,0 -5,-1 -6,-1 -5,-1 -8,-1 -12,-1 -7,0 -13,2 -18,5 0,0 -1,1 -2,1z"/>
     <path class="fil3" d="M166 129l0 -1c2,-2 5,-3 6,-5 2,-1 2,-2 3,-4 5,-6 9,-14 9,-23 0,-3 0,-5 0,-8 0,-2 -1,-5 -2,-7 0,0 0,0 -1,1 -9,3 -16,10 -21,18 -3,4 -5,9 -5,15 -1,3 -1,7 -1,10 0,2 1,8 2,9 1,0 5,-3 7,-4 1,0 2,-1 3,-1z"/>
     <path class="fil4" d="M177 60c0,3 1,6 2,9 1,3 2,4 3,8 0,1 0,1 0,2 0,1 0,2 1,3 1,5 1,8 1,14 1,0 2,-1 2,-1 5,-3 11,-5 18,-5 4,0 7,0 12,1 1,0 6,1 6,1 1,-3 2,-7 2,-10l0 -4c-1,-7 -2,-14 -3,-20 -1,-2 -1,-5 -2,-7 -1,-1 -1,-1 -1,-2 -1,-1 -1,-1 -1,-1 -4,-6 -11,-9 -18,-9 -6,0 -12,2 -16,6 -1,1 -1,1 -2,3 -2,3 -4,7 -4,12z"/>
     <path class="fil2" d="M198 56c-4,1 -2,7 1,6 2,0 3,-2 3,-4 -1,-1 -2,-2 -4,-2z"/>
     <path class="fil5" d="M179 69c-1,-1 -1,-3 -1,-4l-2 0 -4 2c1,0 3,1 4,1 1,0 2,1 3,1z"/>
    </g>
   </g>
  </g>
 </g>
</svg>
