<?xml version="1.0" encoding="UTF-8"?>
<!DOCTYPE svg PUBLIC "-//W3C//DTD SVG 1.1//EN" "http://www.w3.org/Graphics/SVG/1.1/DTD/svg11.dtd">
<!-- Creator: CorelDRAW X7 -->
<svg xmlns="http://www.w3.org/2000/svg" xml:space="preserve" width="1920px" height="1080px" version="1.1" style="shape-rendering:geometricPrecision; text-rendering:geometricPrecision; image-rendering:optimizeQuality; fill-rule:evenodd; clip-rule:evenodd"
viewBox="0 0 208 117"
 xmlns:xlink="http://www.w3.org/1999/xlink">
 <defs>
  <style type="text/css">
   <![CDATA[
    .fil0 {fill:black}
    .fil1 {fill:#5FB709}
    .fil2 {fill:white}
   ]]>
  </style>
 </defs>
 <g id="Capa_x0020_1">
  <metadata id="CorelCorpID_0Corel-Layer"/>
  <g id="_1592139758928">
   <rect class="fil0" width="208" height="117"/>
   <g>
    <path class="fil1" d="M174 65l-5 0c0,1 0,3 1,3 2,3 5,4 9,4 3,0 7,-1 8,-4 1,-1 1,-2 1,-3 -1,-3 -3,-4 -5,-5 -1,0 -2,0 -3,0 -1,-1 -2,-1 -3,-1 -1,0 -3,-1 -3,-2 1,-2 5,-2 6,-1 1,0 2,1 2,2l5 0c0,-1 0,-2 -1,-3 -1,-3 -5,-4 -9,-4 -1,0 -2,0 -3,1 -2,0 -4,2 -5,4 0,1 0,2 0,3 1,2 3,3 5,4 2,1 5,1 7,2 1,0 1,0 1,0 1,1 1,1 0,2 -1,1 -5,1 -6,0 -1,0 -2,-1 -2,-2zm-28 5l0 2 5 0 0 -20 -5 0 0 2c0,-1 -1,-1 -1,-1 -3,-2 -7,-2 -11,-1 -5,3 -7,10 -4,15 3,5 9,6 13,4 1,0 3,-1 3,-1zm-7 -14c-3,0 -6,3 -5,6 0,3 3,6 6,6 3,0 6,-3 6,-7 0,-3 -3,-6 -7,-5zm-13 0c0,0 -1,0 -1,0 -1,0 -12,0 -12,0 0,0 0,-6 0,-7l14 0 0 -4 -19 0 0 27c0,0 9,0 9,0 1,0 10,0 10,0l0 -5 -14 0 0 -7 13 0 0 -4zm31 -4l-4 0 0 4 4 0c0,1 0,2 0,3l0 7c0,1 0,2 0,3 1,1 2,2 4,2 1,1 2,1 3,1 1,0 2,0 3,0l0 -5c-1,0 -3,0 -4,0 -2,0 -1,-1 -1,-3 0,-1 0,-2 0,-4 0,-1 0,-2 0,-4l5 0 0 -4c0,0 -4,0 -5,0l0 -6 -5 0 0 6z"/>
    <path class="fil2" d="M48 69c1,1 2,1 3,2 2,1 6,1 9,0 3,-1 6,-5 6,-9 0,-5 -3,-8 -6,-9 -4,-2 -8,-2 -11,1 0,0 0,0 -1,0 0,1 0,0 0,0 0,-1 0,-9 0,-9 0,0 -3,0 -3,0 -1,0 0,6 0,7 0,1 -1,19 0,20 0,0 3,0 3,0 0,-1 0,-2 0,-2l0 -1c0,0 0,0 0,0zm46 -17c-1,0 -2,0 -2,0 -1,0 -2,0 -2,0l0 20c0,0 3,0 4,0l0 -12c0,-1 0,-2 0,-2 1,-1 2,-2 3,-2 1,-1 2,0 2,0l0 -4c-1,0 -3,0 -5,1 0,0 0,1 0,1 0,0 0,0 0,0l0 -2zm-8 16c0,0 -2,-2 -3,-2 0,0 0,1 -1,1 -2,1 -4,2 -6,1 -2,0 -3,-1 -4,-3 0,0 -1,-1 -1,-2l16 0c0,-3 0,-5 -2,-7 -1,-2 -3,-3 -5,-4 -5,-1 -10,2 -12,6 -1,3 -1,6 0,8 1,2 3,4 5,5 3,2 8,1 11,-1 0,0 2,-2 2,-2zm-15 -8l12 0c0,0 0,-2 -1,-2 -1,-2 -2,-3 -5,-3 -2,0 -4,1 -5,3 0,0 -1,2 -1,2zm-34 9l0 3 4 0 0 -27 -4 0c0,0 0,7 0,7 0,3 0,5 0,8 0,2 0,4 -1,6 -3,3 -8,3 -11,0 -1,-2 -1,-3 -1,-6l0 -13c0,-1 0,-2 0,-2l-4 0c0,0 0,11 0,12 0,1 0,4 0,6 0,4 3,8 8,9 4,0 6,0 9,-3 0,0 0,0 0,0zm17 -14c-3,0 -6,3 -6,7 0,4 4,7 7,7 4,-1 7,-4 7,-8 -1,-3 -4,-6 -8,-6z"/>
   </g>
  </g>
 </g>
</svg>
