<?xml version="1.0" encoding="UTF-8"?>
<!DOCTYPE svg PUBLIC "-//W3C//DTD SVG 1.1//EN" "http://www.w3.org/Graphics/SVG/1.1/DTD/svg11.dtd">
<!-- Creator: CorelDRAW X7 -->
<svg xmlns="http://www.w3.org/2000/svg" xml:space="preserve" width="1920px" height="1080px" version="1.1" style="shape-rendering:geometricPrecision; text-rendering:geometricPrecision; image-rendering:optimizeQuality; fill-rule:evenodd; clip-rule:evenodd"
viewBox="0 0 382 215"
 xmlns:xlink="http://www.w3.org/1999/xlink">
 <defs>
  <style type="text/css">
   <![CDATA[
    .fil1 {fill:#175C9C}
    .fil2 {fill:#FEA700}
    .fil0 {fill:white}
   ]]>
  </style>
 </defs>
 <g id="Capa_x0020_1">
  <metadata id="CorelCorpID_0Corel-Layer"/>
  <g id="_1592080910800">
   <rect class="fil0" width="382" height="215"/>
   <g>
    <path class="fil1" d="M82 78c1,1 2,2 2,4 0,1 0,-1 9,34 5,17 8,32 8,32 0,0 5,0 11,0l11 0 9 -21c5,-12 12,-30 17,-40 4,-11 7,-19 7,-19 0,0 -4,0 -10,0l-11 0 -10 25c-6,14 -10,26 -11,27 -1,2 -1,2 -1,2 0,0 -1,-5 -2,-13l0 3c-5,-15 -22,-29 -29,-34zm197 -10c-3,0 -5,2 -7,5 0,0 -1,3 -2,6 -20,48 -29,68 -29,69 0,0 2,0 11,0l11 0 0 -1c0,0 4,-11 4,-11 0,0 1,0 13,0l13 0 1 0c0,0 0,2 1,6 0,3 1,5 1,5l0 1 10 0c9,0 9,0 9,0 0,-1 -4,-18 -8,-40 -5,-22 -9,-40 -9,-40 0,0 0,0 -9,0 -7,0 -9,0 -10,0l0 0zm8 36c2,8 3,15 3,15 0,0 0,0 -9,0 -8,0 -8,0 -8,0 0,0 2,-6 5,-15 3,-8 6,-14 6,-14 0,-1 0,-1 0,-1 0,0 1,7 3,15zm-62 -38c-1,0 -3,0 -3,1 -16,1 -27,9 -30,20 0,2 0,3 0,5 0,2 0,3 0,4 1,5 4,10 10,14 2,1 4,2 8,5 2,1 3,1 4,2 4,2 6,4 6,6 1,1 0,3 0,4 -1,1 -2,3 -4,3 -2,1 -4,2 -6,2 -1,0 -5,0 -6,0 -3,0 -5,-1 -7,-1 -3,-1 -5,-2 -9,-3 -1,-1 -1,-1 -1,-1 0,0 -4,17 -4,17l0 1 1 0c4,2 10,3 16,4 5,0 9,0 13,-1 13,-1 22,-7 26,-15 2,-3 3,-6 3,-9 0,-1 0,-3 0,-4 0,-3 -1,-5 -2,-7 -2,-5 -6,-8 -13,-12 -1,-1 -2,-1 -4,-2 -5,-3 -7,-4 -8,-5 -1,-1 -2,-3 -2,-4 0,-1 1,-3 2,-4 2,-2 6,-3 11,-3 5,0 11,1 16,3 0,1 0,1 0,1 0,0 1,-4 2,-9 1,-5 2,-8 2,-8 0,0 -1,0 -2,-1 -5,-1 -9,-2 -14,-3 -1,0 -4,0 -5,0l0 0zm-61 10c-1,5 -5,23 -9,40 -4,17 -7,31 -7,31l0 1 11 0 10 0 0 -1c0,0 1,-5 3,-12 1,-6 5,-24 8,-39 3,-15 6,-28 6,-28l0 0 -10 0 -11 0 -1 8 0 0z"/>
    <path class="fil2" d="M60 68c0,0 0,0 0,1 0,0 -1,1 -1,1 0,0 0,0 1,0 0,0 1,0 3,1 6,1 12,3 16,5 4,2 26,19 32,36 0,-4 -1,-8 -2,-13 -2,-13 -4,-23 -5,-24 0,-2 -1,-4 -3,-5 -1,-1 -3,-2 -4,-2l-1 0 -7 0c-4,0 -12,0 -18,0 -9,0 -11,0 -11,0z"/>
   </g>
   <rect class="fil1" x="16" y="15" width="349.737" height="29.3777"/>
   <rect class="fil2" x="16" y="170" width="349.737" height="29.3777"/>
  </g>
 </g>
</svg>
