<?xml version="1.0" encoding="UTF-8"?>
<!DOCTYPE svg PUBLIC "-//W3C//DTD SVG 1.1//EN" "http://www.w3.org/Graphics/SVG/1.1/DTD/svg11.dtd">
<!-- Creator: CorelDRAW X7 -->
<svg xmlns="http://www.w3.org/2000/svg" xml:space="preserve" width="1920px" height="1080px" version="1.1" style="shape-rendering:geometricPrecision; text-rendering:geometricPrecision; image-rendering:optimizeQuality; fill-rule:evenodd; clip-rule:evenodd"
viewBox="0 0 270 152"
 xmlns:xlink="http://www.w3.org/1999/xlink">
 <defs>
  <style type="text/css">
   <![CDATA[
    .fil2 {fill:#2DD0B6}
    .fil0 {fill:#830094}
    .fil1 {fill:white}
   ]]>
  </style>
 </defs>
 <g id="Capa_x0020_1">
  <metadata id="CorelCorpID_0Corel-Layer"/>
  <g id="_1592139776528">
   <rect class="fil0" width="270" height="152"/>
   <g>
    <path class="fil1" d="M125 99c-1,3 -5,11 -8,14 -1,2 -5,7 -7,5 -1,-2 0,-6 1,-7 2,-3 3,-5 6,-7 1,-2 6,-5 8,-5zm77 -46c1,-3 5,-12 8,-9 2,2 -3,8 -8,9zm-1 6c5,-1 10,-4 12,-8 2,-2 3,-5 3,-7 0,-8 -11,-10 -17,0 -2,5 -4,9 -5,15 -1,6 0,13 5,14 5,2 10,-2 14,-5 0,-1 1,-2 2,-3 0,-1 -1,-7 -4,-4 -2,2 0,1 -2,3 -9,7 -10,-1 -8,-5zm-17 -11c2,-1 3,3 3,5 0,2 -1,4 -1,6 -2,4 -3,9 -7,10 -1,0 -3,0 -3,-1 0,-1 0,-3 0,-3 2,-5 4,-16 8,-17zm-24 2c1,0 2,0 2,2 1,1 -2,8 -2,9 -1,3 -3,11 -6,10 -2,-1 -3,-3 -3,-6 0,-2 1,-5 2,-6 1,-4 3,-8 7,-9zm-31 29c0,0 1,-1 1,-1 1,-1 1,-1 2,-2 -1,1 -3,7 -3,9 -1,1 -1,3 -2,4 0,1 -2,1 -3,2 -3,1 -5,2 -7,4 -5,3 -8,6 -11,11 -3,5 -5,12 -1,17 1,1 4,3 8,2 5,-1 9,-6 12,-10 3,-4 5,-10 7,-15 2,-5 0,-4 6,-5 3,-1 6,-1 9,-2 3,-1 6,-1 9,-2 2,0 8,-1 9,-1 0,1 0,3 1,3 0,1 1,2 3,1 1,-1 2,-3 3,-5 3,-1 15,-2 18,-3 5,0 11,-1 15,-1 1,-1 3,-1 3,-3 0,-1 -1,-3 -2,-3 -3,-2 -19,1 -24,1 -3,0 -6,1 -9,1l1 -9c1,1 1,1 3,2 1,1 2,1 4,1 10,0 15,-26 10,-33 -2,-2 -6,-2 -9,1 -1,1 -2,2 -2,3 0,-3 1,-3 -2,-4 -2,0 -3,-1 -4,1 -1,4 -4,23 -4,24 -1,1 -3,2 -4,2 -1,-1 0,-3 0,-4 0,-2 0,-3 1,-4 0,-3 1,-6 1,-9 1,-1 2,-7 1,-8 0,-1 -2,-1 -4,-1 -1,0 -1,2 -2,3 0,-1 0,-1 -1,-1 -10,-6 -20,17 -16,30 1,4 5,5 9,3 2,-1 3,-2 4,-5 0,1 1,4 4,4 2,0 4,-1 5,-2l-1 7c-9,1 -22,3 -31,5 0,-1 10,-36 10,-37 1,-1 2,-4 0,-5 -2,0 -4,1 -5,2 -2,2 -3,4 -4,7 -1,4 -3,10 -5,13 -1,2 -4,7 -6,6 -3,-2 1,-12 2,-14 1,-3 2,-7 -2,-9 -5,-1 -2,3 -4,8 -2,4 -5,14 -4,19 0,3 3,5 7,4 1,0 3,-1 4,-2z"/>
    <path class="fil2" d="M72 45c3,0 8,1 9,5 1,4 -3,4 -3,1 -1,-1 -1,-2 -2,-2 -2,-2 -5,-1 -6,1 -1,4 7,4 10,7 1,2 2,4 1,7 -1,1 -3,2 -6,3 -8,0 -10,-7 -8,-9 1,-1 2,0 2,1 1,2 0,2 1,3 3,3 10,2 8,-2 -1,-3 -6,-3 -9,-5 -4,-3 -3,-9 3,-10zm22 0c1,0 2,1 1,2l-4 9c-1,1 -2,3 -3,5 -1,1 -3,5 -3,5 -2,1 -3,-1 -2,-2 0,-1 6,-12 7,-14 1,-1 2,-5 4,-5zm-16 -15c-8,0 -14,4 -18,8 -7,9 -8,23 0,32 2,2 1,2 1,8 -2,7 1,5 5,2 1,0 3,-2 4,-2 1,0 4,1 5,1 16,2 29,-9 30,-23 0,-9 -4,-15 -8,-19 -4,-4 -11,-8 -19,-7z"/>
   </g>
  </g>
 </g>
</svg>
